<?xml version="1.0" encoding="utf-8" ?>
<svg baseProfile="full" height="300mm" version="1.1" viewBox="0,0,200,300" width="200mm" xmlns="http://www.w3.org/2000/svg" xmlns:ev="http://www.w3.org/2001/xml-events" xmlns:xlink="http://www.w3.org/1999/xlink"><defs /><rect fill="#222222" height="300" width="200" x="0" y="0" /><text fill="#FFFFFF" style="font-size:12px; font-family:Arial; font-weight:bold;" x="10" y="20">Over 10km Runs</text><text fill="#FFFFFF" style="font-size:4px; font-family:Arial" x="10" y="280">Runner</text><text fill="#FFFFFF" style="font-size:9px; font-family:Arial" x="10" y="290">Perry ong</text><text fill="#FFFFFF" style="font-size:4px; font-family:Arial" x="65" y="280">SPECIAL TRACKS</text><rect fill="yellow" height="2.6" width="2.6" x="65" y="283" /><text fill="#FFFFFF" style="font-size:3px; font-family:Arial" x="70" y="285.5">Over 20.0 km</text><rect fill="red" height="2.6" width="2.6" x="65" y="287" /><text fill="#FFFFFF" style="font-size:3px; font-family:Arial" x="70" y="289.5">Over 40.0 km</text><text fill="#FFFFFF" style="font-size:4px; font-family:Arial" x="120" y="280">STATISTICS</text><text fill="#FFFFFF" style="font-size:3px; font-family:Arial" x="120" y="285">Number: 3</text><text fill="#FFFFFF" style="font-size:3px; font-family:Arial" x="120" y="290">Weekly: 1.0</text><text fill="#FFFFFF" style="font-size:3px; font-family:Arial" x="141" y="285">Total: 39.7 km</text><text fill="#FFFFFF" style="font-size:3px; font-family:Arial" x="141" y="290">Avg: 13.2 km</text><text fill="#FFFFFF" style="font-size:3px; font-family:Arial" x="167" y="285">Min: 10.2 km</text><text fill="#FFFFFF" style="font-size:3px; font-family:Arial" x="167" y="290">Max: 19.0 km</text><polyline fill="none" points="90.00622542586643,90.74258978359285 89.4488859763369,91.0877040598134 87.11336828302592,90.15855019749142 84.72477064211853,90.13200294232229 82.07077326334547,91.0877040598134 82.09731323714368,89.17630168423057 81.69921363028698,88.22060028533451 81.08879423327744,87.92858038542909 77.50589777191635,87.92858038542909 77.10779816505965,88.19405302227824 77.63859764079098,91.61864906430128 77.24049803405069,91.93721604614984 72.11828309297562,88.40643112393445 65.1117300131591,85.8578934451798 63.068152031395584,86.33574433624744 61.422673656605184,88.51262017220142 60.73263433808461,88.43297838614671 58.821756225428544,86.68085884678294 57.20281782420352,86.49502795870649 53.407601572573185,88.37988386160578 53.06258191342931,90.98151505365968 52.50524246378336,91.88412155027618 45.286369593581185,100.3792353773897 44.83519003924448,100.3792353773897 42.420052424655296,98.14926907161134 42.871231978992,96.9546439506521 42.15465268667322,95.94584923321963 39.076015727361664,94.45920410123654 38.20019659225363,93.6627869264048 38.0409567495808,87.63656047233962 39.15563564875629,85.69860980697558 38.730996068101376,84.66326606352231 37.64285714284051,83.9995840897318 34.59076015721075,83.9995840897318 33.26376146788243,83.54828030869248 33.05144167738035,81.29176093218848 33.555701179546304,80.2829637802206 32.91874180850573,77.94680135109229 27.637287024757825,74.15053560453816 18.985255570034496,69.77022620334174 14.5,63.425409132876666 14.606159895076416,61.88566178933252 17.52555701159872,60.90340898136492 20.683813892421313,58.646881692897296 26.25720838783309,55.80631092263502 27.637287024757825,54.346203963737935 28.96428571420256,51.82420025349711 32.75950196571648,50.0720707772125 32.73296199203469,50.49682948202826 32.17562254250515,50.6030191538448 32.22870248998515,51.532178707333514 33.31684141536243,51.34634680734598 35.99737876805011,51.956937315524556 37.13859764079098,52.806454447767464 38.46559633023571,53.04538112098817 41.7034731322201,52.62062258471269 42.23427260806784,51.903842491068644 42.31389252934605,50.44373464549426 43.08355176926125,49.62076462258119 45.12712975090835,50.41718722699443 47.32994757522829,50.23135529481806 47.32994757522829,57.77081794428523 49.4000655306736,58.62033430839074 51.49672345991712,61.16888272803044 53.407601572573185,61.43435646375292 53.85878112690989,63.13338811320136 56.141218872740865,63.770524866326014 58.50327653985005,63.55814595558331 63.09469200507738,62.70863024290884 70.8709043249255,60.21317718891078 74.74574049795046,63.13338811320136 76.09927916107699,67.14203913629171 76.73623853200115,67.30132323145517 77.61205766699277,66.74382888121181 77.79783748358022,64.80587195567205 78.19593709032051,64.27492475113831 79.84141546522733,65.15098761519766 83.34469200519379,69.98260490948451 85.68020969850477,70.85866699856706 87.8034076015465,73.93815703538712 90.88204456085805,76.2212262879475 91.97018348623533,77.97334865614539 95.5,80.04403811594239 95.15498034073971,80.84045696258545 91.78440366964787,82.32710521429544 91.30668414139654,83.09697649627924 91.439384010504,83.89339496762841 93.11140235909261,86.149913438363 93.32372214936186,88.14095849575824 94.22608125815168,89.3621324954147" stroke="#4DD2FF" stroke-linecap="round" stroke-linejoin="round" stroke-width="0.5"><title>2026-01-24 10.5km</title><desc>1769208482000</desc></polyline><polyline fill="none" points="144.01297169807367,86.65636619541328 142.83490566036198,77.61161093669944 141.0200471697608,77.22943795647006 138.95047169807367,75.54150707717054 140.4787735848222,63.66228542680619 142.1981132074725,60.604895786673296 148.4386792453006,57.80228759563761 151.75,55.15891761094099 153.373820754583,52.89772090961924 153.9469339621719,50.47728429839481 153.18278301879764,48.27978200576035 150.85849056602456,45.700104632938746 143.37617924518418,51.59195914422162 139.74646226409823,53.69391700386768 140.25589622638654,55.38185246253852 141.81603773590177,56.27359180687927 147.10141509433743,52.16522043326404 165.60023584915325,39.93563737877412 166.04599056602456,39.012048316944856 165.8231132075889,38.34324237809051 163.97641509433743,38.27954657142982 162.09787735843565,39.61715840396937 160.41037735843565,42.10129407135537 160.41037735843565,44.171406538865995 161.68396226409823,44.64912472461583 164.93160377349705,42.037598294671625 168.1474056604784,40.89107422711095 170.4080188679509,39.13943991798442 172.95518867927603,38.59802559943637 183.36674528301228,38.37509028118802 185.11792452831287,37.06932614929974 185.5,36.17758466838859 185.08608490566257,35.79540971759707 182.22051886783447,37.3559573184466 171.80896226409823,38.18400286056567 168.08372641494498,39.48976681055501 145.31839622638654,54.29902598261833 142.89858490566257,56.62391795084113 143.72641509433743,59.10804835165618 142.48466981132515,57.388265848218 141.5294811320491,57.32457019289723 136.43514150939882,61.018917368375696 132.6780660377117,64.84065404045396 129.9080188679509,66.43304378504399 128.41155660373624,68.34391106298426 126.59669811313506,69.23564897087635 121.18396226409823,75.82813687401358 120.67452830192633,77.51606769330101 114.6568396226503,87.70734062243719 110.99528301891405,104.36367471457925 107.49292452831287,111.21091496094596 104.5,114.20459028240293 107.81132075469941,112.45297187677352 108.70283018879127,111.27461019199109 108.83018867915962,109.07712443242781 111.28183962253388,102.898683029518 109.88089622638654,100.5738043783931 107.46108490554616,98.72664004418766 106.7924528302392,97.1661043309723 110.58136792446021,90.09591835836181 108.22523584903684,88.56722868862562 108.41627358493861,88.05766540113837" stroke="#4DD2FF" stroke-linecap="round" stroke-linejoin="round" stroke-width="0.5"><title>2025-12-07 10.2km</title><desc>1765061712000</desc></polyline><polyline fill="none" points="58.861445783113595,240.70985659453436 59.34337349398993,240.11930911992386 59.8734939758433,239.86621730627667 61.16265060240403,237.9981579609448 61.86144578305539,237.34734989068238 62.4156626505428,236.38318950297253 62.88554216863122,234.79232412256533 62.86144578305539,233.44249822740676 63.16265060240403,233.24966590237455 63.42771084338892,229.51353692372504 63.620481927646324,229.01940335409017 71.11445783131057,227.12723251702846 71.45180722884834,227.19954480240995 74.7650602409849,226.1992246844893 77.1506024095579,226.1751205807377 78.19879518065136,226.38000545583782 80.93373493972467,227.98292777129973 81.63253012049245,226.71746286364214 82.5,225.7774028380809 87.17469879513374,222.16178433394816 89.11445783131057,221.10120199545054 90.82530120480806,218.72694230638444 92.0542168674292,217.774827432062 92.76506024092669,215.55724212616042 93.54819277109345,214.50870931211102 93.6807228915277,213.74942667630967 93.17469879519194,212.71294527428108 93.3192771084141,211.14617030855152 93.10240963852266,210.67613764190173 93.3313253011438,211.09796183365688 93.69277108431561,211.13411818990426 94.03012048191158,210.664085521159 92.94578313245438,209.8686454340641 93.07831325294683,209.31424765913107 93.40361445781309,209.29014340546564 95.5,210.4953558252746 94.82530120480806,210.14584427884256 94.72891566256294,210.32662611884007 94.8734939758433,210.3868867294659 94.33132530120201,210.6881897625426 94.75301204813877,211.20643090092926 94.71686746989144,211.66441135914647 94.98192771081813,211.5438901934831 94.30722891568439,212.42369457964378 94.18674698792165,214.85822029520932 93.12650602404028,215.55724212616042 92.1385542168282,215.0872102251742 91.83734939753776,215.496981630582 90.94578313251259,215.12336652816157 90.43975903606042,215.40056483486842 89.66867469879799,216.38883682827873 90.45180722890655,217.50968145827937 90.8734939758433,217.7507232537173 91.40361445775488,217.56994190913974 91.63253012043424,217.2927438240731 91.70481927710352,216.11163862257672 92.12650602404028,215.111314427224 92.82530120480806,215.42466903415334 92.0542168674292,217.7507232537173 90.78915662644431,218.78720273026556 89.17469879513374,221.0650457720767 87.24698795174481,222.12562812464603 82.54819277103525,225.71714256897394 81.64457831316395,226.71746286364214 81.0542168674292,227.9226675508835 80.7771084337146,227.98292777129973 78.12650602409849,226.39205750683323 77.12650602409849,226.1871726326499 75.34337349393172,226.16306852876733 62.46385542169446,229.26044413095224 61.03012048191158,229.85099394434656 59.24698795174481,231.05619724943244 56.271084337320644,233.8643188910646 54.86144578305539,234.81642815037048 51.608433734916616,236.11804533697432 51.560240963764954,236.27472143816703 51.150602409557905,236.32292946748203 46.63253012049245,238.40792592609068 45.52409638551762,238.73332985486195 44.548192771093454,238.8538498186972 44.22289156622719,238.7453818514623 44.054216867429204,236.70859367167577 43.81325301202014,236.22651340797893 43.96987951803021,236.20240939255746 43.7771084337146,236.17830537696136 40.825301204808056,232.08061964123044 40.47590361442417,231.51417436612246 40.47590361442417,231.1285094308114 40.09036144573474,231.10440537057002 39.608433734916616,230.53795989332139 37.46385542169446,224.1503751049604 36.99397590360604,224.00575037059025 33.93373493972467,224.86144660407444 31.018072289123666,225.3314768152195 29.427710843388923,225.3073727038136 26.25903614453273,224.463728669798 25.35542168666143,224.53604102581448 24.16265060234582,225.0542795210058 23.873493975843303,224.31910395203158 23.463855421636254,224.29499983167625 23.90963855420705,224.1865312873415 23.65662650601007,223.29467864811886 23.680722891527694,223.02953321259702 23.90963855420705,223.12594973758678 23.343373493931722,222.75233568419935 22.331325301202014,221.2337748103746 23.801204819290433,219.71521308882802 22.3192771084141,221.2458268841292 23.427710843330715,222.92106461789808 23.921686746936757,224.19858334802848 18.43975903611863,225.3314768152195 16.090361445734743,226.51257801387692 14.765060240984894,227.70573074648564 14.861445783113595,227.85035528469598 14.5,228.7663105154934 15.054216867429204,229.15197578397056 14.789156626502518,229.98356633388903 14.813253011961933,230.56206395856861 15.560240963823162,231.18876958056353 16.69277108431561,231.1767175507266 17.174698795133736,231.0079891274072 17.451807228906546,231.32134190527722 17.65662650601007,230.97183303534985 17.63253012043424,231.38160205076565 17.24698795180302,231.3333939344593" stroke="#4DD2FF" stroke-linecap="round" stroke-linejoin="round" stroke-width="0.5"><title>2025-06-21 19.0km</title><desc>1750491371000</desc></polyline></svg>