<?xml version="1.0" encoding="utf-8" ?>
<svg baseProfile="full" height="300mm" version="1.1" viewBox="0,0,200,300" width="200mm" xmlns="http://www.w3.org/2000/svg" xmlns:ev="http://www.w3.org/2001/xml-events" xmlns:xlink="http://www.w3.org/1999/xlink"><defs /><rect fill="#222222" height="300" width="200" x="0" y="0" /><text fill="#FFFFFF" style="font-size:12px; font-family:Arial; font-weight:bold;" x="10" y="20">Over 10km Runs</text><text fill="#FFFFFF" style="font-size:4px; font-family:Arial" x="10" y="280">Runner</text><text fill="#FFFFFF" style="font-size:9px; font-family:Arial" x="10" y="290">Perry ong</text><text fill="#FFFFFF" style="font-size:4px; font-family:Arial" x="65" y="280">SPECIAL TRACKS</text><rect fill="yellow" height="2.6" width="2.6" x="65" y="283" /><text fill="#FFFFFF" style="font-size:3px; font-family:Arial" x="70" y="285.5">Over 20.0 km</text><rect fill="red" height="2.6" width="2.6" x="65" y="287" /><text fill="#FFFFFF" style="font-size:3px; font-family:Arial" x="70" y="289.5">Over 40.0 km</text><text fill="#FFFFFF" style="font-size:4px; font-family:Arial" x="120" y="280">STATISTICS</text><text fill="#FFFFFF" style="font-size:3px; font-family:Arial" x="120" y="285">Number: 1</text><text fill="#FFFFFF" style="font-size:3px; font-family:Arial" x="120" y="290">Weekly: 1.0</text><text fill="#FFFFFF" style="font-size:3px; font-family:Arial" x="141" y="285">Total: 19.0 km</text><text fill="#FFFFFF" style="font-size:3px; font-family:Arial" x="141" y="290">Avg: 19.0 km</text><text fill="#FFFFFF" style="font-size:3px; font-family:Arial" x="167" y="285">Min: 19.0 km</text><text fill="#FFFFFF" style="font-size:3px; font-family:Arial" x="167" y="290">Max: 19.0 km</text><polyline fill="none" points="107.72289156622719,181.41971318906872 108.68674698797986,180.2386182398477 109.7469879516866,179.73243461255333 112.32530120480806,175.99631592188962 113.72289156611077,174.69469978136476 114.8313253010856,172.76637900594505 115.77108433726244,169.58464824513067 115.72289156611077,166.88499645481352 116.32530120480806,166.4993318047491 116.85542168677785,159.02707384745008 117.24096385529265,158.03880670818035 132.22891566262115,154.25446503405692 132.90361445769668,154.3990896048199 139.5301204819698,152.39844936897862 144.3012048191158,152.35024116147542 146.39759036130272,152.76001091167564 151.86746987944935,155.96585554259946 153.2650602409849,153.43492572728428 155.0,151.55480567616178 164.34939759026747,144.32356866789632 168.22891566262115,142.20240399090108 171.6506024096161,137.4538846127689 174.1084337348584,135.54965486412402 175.53012048185337,131.11448425232084 177.0963855421869,129.01741862422205 177.3614457830554,127.49885335261934 176.3493975903839,125.42589054856217 176.6385542168282,122.29234061710304 176.20481927704532,121.35227528380346 176.6626506022876,122.19592366731376 177.38554216863122,122.26823637980851 178.06024096382316,121.32817104231799 175.89156626490876,119.73729086812818 176.15662650589366,118.62849531826214 176.80722891562618,118.58028681093128 181.0,120.9907116505492 179.6506024096161,120.29168855768512 179.45783132512588,120.65325223768014 179.7469879516866,120.77377345893183 178.66265060240403,121.37637952508521 179.50602409627754,122.41286180185853 179.43373493978288,123.32882271829294 179.96385542163625,123.08778038696619 178.61445783136878,124.84738915928756 178.3734939758433,129.71644059041864 176.25301204808056,131.11448425232084 174.2771084336564,130.1744204503484 173.67469879507553,130.99396326116403 171.89156626502518,130.24673305632314 170.87951807212085,130.80112966973684 169.33734939759597,132.77767365655745 170.9036144578131,135.01936291655875 171.7469879516866,135.5014465074346 172.80722891550977,135.1398838182795 173.26506024086848,134.58548764814623 173.40963855420705,132.22327724515344 174.25301204808056,130.22262885444798 175.6506024096161,130.84933806830668 174.1084337348584,135.5014465074346 171.57831325288862,137.57440546053112 168.34939759026747,142.1300915441534 164.49397590348963,144.25125624929206 155.0963855420705,151.43428513794788 153.2891566263279,153.43492572728428 152.1084337348584,155.84533510176698 151.5542168674292,155.96585554259946 146.25301204819698,152.78411501366645 144.25301204819698,152.37434526529978 140.68674698786344,152.32613705753465 114.92771084338892,158.52088826190447 112.06024096382316,159.7019878886931 108.49397590348963,162.1123944988649 102.54216867464129,167.72863778212923 99.72289156611077,169.63285630074097 93.21686746983323,172.23609067394864 93.12048192752991,172.54944287633407 92.30120481911581,172.64585893496405 83.2650602409849,176.81585185218137 81.04819277103525,177.4666597097239 79.09638554218691,177.7076996373944 78.44578313245438,177.4907637029246 78.10843373485841,173.41718734335154 77.62650602404028,172.45302681595786 77.93975903606042,172.4048187851149 77.5542168674292,172.35661075392272 71.65060240961611,164.16123928246088 70.95180722884834,163.02834873224492 70.95180722884834,162.25701886162278 70.18072289146949,162.20881074114004 69.21686746983323,161.07591978664277 64.92771084338892,148.3007502099208 63.987951807212085,148.0115007411805 57.867469879449345,149.7228932081489 52.03614457824733,150.662953630439 48.855421686777845,150.6147454076272 42.51807228906546,148.927457339596 40.71084337332286,149.07208205162897 38.32530120469164,150.10855904201162 37.746987951686606,148.63820790406317 36.92771084327251,148.5899996633525 37.8192771084141,148.373062574683 37.31325301202014,146.58935729623772 37.36144578305539,146.05906642519403 37.8192771084141,146.25189947517356 36.686746987863444,145.5046713683987 34.66265060240403,142.4675496207492 37.602409638580866,139.43042617765605 34.6385542168282,142.4916537682584 36.85542168666143,145.84212923579616 37.843373493873514,148.39716669605696 26.87951807223726,150.662953630439 22.180722891469486,153.02515602775384 19.53012048196979,155.41146149297128 19.72289156622719,155.70071056939196 19.0,157.53262103098677 20.10843373485841,158.3039515679411 19.578313253005035,159.96713266777806 19.626506023923866,161.12412791713723 21.120481927646324,162.37753916112706 23.38554216863122,162.35343510145321 24.349397590267472,162.0159782548144 24.90361445781309,162.64268381055444 25.31325301202014,161.9436660706997 25.26506024086848,162.7632041015313 24.493975903606042,162.66678786891862" stroke="#4DD2FF" stroke-linecap="round" stroke-linejoin="round" stroke-width="0.5"><title>2025-06-21 19.0km</title><desc>1750491371000</desc></polyline></svg>