<?xml version="1.0" encoding="utf-8" ?>
<svg baseProfile="full" height="300mm" version="1.1" viewBox="0,0,200,300" width="200mm" xmlns="http://www.w3.org/2000/svg" xmlns:ev="http://www.w3.org/2001/xml-events" xmlns:xlink="http://www.w3.org/1999/xlink"><defs /><rect fill="#222222" height="300" width="200" x="0" y="0" /><text fill="#FFFFFF" style="font-size:12px; font-family:Arial; font-weight:bold;" x="10" y="20">Over 10km Runs</text><text fill="#FFFFFF" style="font-size:4px; font-family:Arial" x="10" y="280">Runner</text><text fill="#FFFFFF" style="font-size:9px; font-family:Arial" x="10" y="290">Perry ong</text><text fill="#FFFFFF" style="font-size:4px; font-family:Arial" x="65" y="280">SPECIAL TRACKS</text><rect fill="yellow" height="2.6" width="2.6" x="65" y="283" /><text fill="#FFFFFF" style="font-size:3px; font-family:Arial" x="70" y="285.5">Over 20.0 km</text><rect fill="red" height="2.6" width="2.6" x="65" y="287" /><text fill="#FFFFFF" style="font-size:3px; font-family:Arial" x="70" y="289.5">Over 40.0 km</text><text fill="#FFFFFF" style="font-size:4px; font-family:Arial" x="120" y="280">STATISTICS</text><text fill="#FFFFFF" style="font-size:3px; font-family:Arial" x="120" y="285">Number: 2</text><text fill="#FFFFFF" style="font-size:3px; font-family:Arial" x="120" y="290">Weekly: 1.0</text><text fill="#FFFFFF" style="font-size:3px; font-family:Arial" x="141" y="285">Total: 29.2 km</text><text fill="#FFFFFF" style="font-size:3px; font-family:Arial" x="141" y="290">Avg: 14.6 km</text><text fill="#FFFFFF" style="font-size:3px; font-family:Arial" x="167" y="285">Min: 10.2 km</text><text fill="#FFFFFF" style="font-size:3px; font-family:Arial" x="167" y="290">Max: 19.0 km</text><polyline fill="none" points="98.68396226409823,105.54182159382617 97.11320754722692,93.48214791557984 94.69339622650295,92.97258394194068 91.93396226409823,90.72200943616917 93.97169811325148,74.88304723566398 96.26415094337426,70.80652771552559 104.5849056604784,67.06971679412527 109.0,63.54522348125465 111.1650943395216,60.530294546158984 111.92924528289586,57.30304573109606 110.91037735855207,54.37304267426953 107.81132075469941,50.933472843898926 97.83490566024557,58.78927885898156 92.99528301879764,61.59188933845144 93.67452830192633,63.84246994997375 95.75471698120236,65.03145574242808 102.80188679252751,59.55362724425504 127.46698113228194,43.247516505012754 128.0613207546994,42.01606442255434 127.76415094337426,41.12432317074854 125.30188679252751,41.03939542855369 122.79716981132515,42.822877871920355 120.54716981132515,46.13505876180716 120.54716981132515,48.895208718429785 122.24528301903047,49.532166299410164 126.57547169807367,46.050131059542764 130.86320754722692,44.521432302834 133.87735849060118,42.18591989064589 137.273584905779,41.46403413254302 151.1556603773497,41.16678704152582 153.4905660378281,39.425768199085724 154.0,38.23677955783205 153.4481132074725,37.727212956757285 149.62735849060118,39.807943091203924 135.74528301879764,40.91200381406816 130.77830188674852,42.65302241401514 100.42452830192633,62.398701310157776 97.19811320770532,65.49855726771057 98.30188679252751,68.81073113548337 96.64622641517781,66.5176877976046 95.37264150939882,66.4327602571575 88.58018867927603,71.35855649108998 83.57075471710414,76.45420538727194 79.87735849060118,78.57739171333378 77.88207547180355,81.12521475064568 75.46226415084675,82.31419862777693 68.24528301879764,91.10418249864597 67.56603773590177,93.35475692438195 59.542452830122784,106.94312082987744 54.66037735855207,129.15156628604745 49.9905660378281,138.28121994785033 46.0,142.2727870431845 50.41509433975443,139.93729583563982 51.60377358505502,138.36614692257717 51.77358490554616,135.43616590980673 55.042452830122784,127.19824403931852 53.17452830192633,124.09840583783807 49.94811320747249,121.63552005891688 49.056603773729876,119.55480577459093 54.10849056602456,110.12789114448242 50.96698113204911,108.08963825146202 51.22169811325148,107.41022053483175" stroke="#4DD2FF" stroke-linecap="round" stroke-linejoin="round" stroke-width="0.5"><title>2025-12-07 10.2km</title><desc>1765061712000</desc></polyline><polyline fill="none" points="105.1485943775042,230.94647545937914 105.79116465867264,230.15907882657484 106.49799196782988,229.82162307502585 108.21686746989144,227.33087728125975 109.14859437744599,226.4631331875862 109.88755020074314,225.17758600396337 110.51405622489983,223.05643216343015 110.48192771081813,221.2566643032187 110.8835341365193,220.9995545365091 111.23694779118523,216.0180492316431 111.49397590360604,215.35920447212993 121.48594377510017,212.83631002271431 121.93574297183659,212.93272640323266 126.35341365466593,211.59896624597604 129.53413654613541,211.56682744098362 130.93172690761276,211.84000727444072 134.57831325300504,213.97723702841904 135.510040160676,212.2899504848756 136.66666666668607,211.03653711744118 142.89959839353105,206.21571244526422 145.48594377510017,204.80160266059102 147.7670682730968,201.63592307519866 149.405622489925,200.36643657609238 150.35341365460772,197.4096561682236 151.39759036147734,196.01161241612863 151.5742971887812,194.9992355683935 150.89959839358926,193.6172603657178 151.09236947790487,191.528227078059 150.80321285140235,190.90151685586898 151.10843373491662,191.4639491115522 151.59036144573474,191.5121575865487 152.04016064258758,190.88544736156473 150.59437750995858,189.82486057875212 150.77108433726244,189.0856635455275 151.20481927710352,189.05352454062086 154.0,190.66047443370917 153.10040160641074,190.19445903846645 152.97188755014213,190.43550149179646 153.16465863451594,190.51584897263092 152.44176706828875,190.9175863500568 153.00401606422383,191.60857453456265 152.9558232931886,192.21921514553833 153.3092369477963,192.05852025796776 152.40963855426526,193.23159277284867 152.24899598391494,196.4776270602888 150.83534136542585,197.4096561682236 149.51807228918187,196.78294696690864 149.1164658634225,197.32930884076632 147.92771084333071,196.8311553708627 147.25301204813877,197.2007531131676 146.22489959839731,198.51844910439104 147.26907630520873,200.01290861103917 147.8313253011438,200.33429767162306 148.53815261041746,200.0932558788627 148.84337349393172,199.72365843207808 148.93975903611863,198.14885149674956 149.50200803211192,196.81508590295562 150.43373493978288,197.2328920455475 149.405622489925,200.33429767162306 147.71887550200336,201.71627030702075 145.56626506021712,204.75339436274953 142.99598393571796,206.1675041661947 136.73092369473306,210.95619009196525 135.52610441762954,212.2899504848756 134.73895582329715,213.89689006784465 134.36947791167768,213.97723702841904 130.83534136548406,211.85607667578734 129.50200803211192,211.58289684352349 127.12449799198657,211.55075803835643 109.95180722890655,215.68059217458358 108.04016064258758,216.4679919258051 105.66265060240403,218.07492966589052 101.69477911642753,221.81909185476252 99.81526104413206,223.08857086717035 95.4779116465943,224.8240604493185 95.41365461843088,225.03296191754634 94.86746987944935,225.09723928998574 88.84337349398993,227.8772345681209 87.36546184733743,228.31110647314927 86.06425702816341,228.47179975826293 85.63052208832232,228.32717580194003 85.40562248998322,225.61145822890103 85.084337349399,224.9686845439719 85.29317269072635,224.93654585676268 85.03614457830554,224.90440716929152 81.10040160641074,219.44082618830726 80.63453815260436,218.6855658214772 80.63453815260436,218.17134590775822 80.12048192764632,218.13920716076973 79.4779116465943,217.38394652443822 76.61847389559262,208.86716680662357 75.99196787149413,208.67433382745367 71.91164658631897,209.81526213875622 68.02409638551762,210.44196908696904 65.9036144578713,210.40983027176117 61.67871485941578,209.28497155974037 60.473895582254045,209.3813880344096 58.8835341365193,210.0723726946744 58.497991967829876,209.09213860271848 57.951807228906546,209.05999977554893 58.54618473892333,208.91537504977896 58.208835341385566,207.72623819750152 58.24096385540906,207.37271095011965 58.54618473892333,207.50126631680178 57.791164658614434,207.00311424559914 56.441767068288755,204.9783664138231 58.40160642575938,202.9536174517707 56.425702811277006,204.9944358454959 57.90361445781309,207.22808615720714 58.56224899593508,208.93144446404767 51.25301204819698,210.44196908696904 48.12048192770453,212.01677068517893 46.35341365466593,213.6076409953239 46.48192771081813,213.80047371290857 46.0,215.02174735401059 46.73895582323894,215.53596771194134 46.38554216863122,216.64475511186174 46.417670682654716,217.4160852780915 47.41365461843088,218.2516927740944 48.92369477910688,218.2356234009785 49.56626506021712,218.01065216987627 49.9357429718948,218.42845587368356 50.20883534132736,217.96244404712343 50.17670682724565,218.5088027343445 49.66265060240403,218.44452524592634" stroke="#4DD2FF" stroke-linecap="round" stroke-linejoin="round" stroke-width="0.5"><title>2025-06-21 19.0km</title><desc>1750491371000</desc></polyline></svg>