<?xml version="1.0" encoding="utf-8" ?>
<svg baseProfile="full" height="300mm" version="1.1" viewBox="0,0,200,300" width="200mm" xmlns="http://www.w3.org/2000/svg" xmlns:ev="http://www.w3.org/2001/xml-events" xmlns:xlink="http://www.w3.org/1999/xlink"><defs /><rect fill="#222222" height="300" width="200" x="0" y="0" /><text fill="#FFFFFF" style="font-size:12px; font-family:Arial; font-weight:bold;" x="10" y="20">2025 Running</text><text fill="#FFFFFF" style="font-size:4px; font-family:Arial" x="10" y="280">Runner</text><text fill="#FFFFFF" style="font-size:9px; font-family:Arial" x="10" y="290">Perry</text><text fill="#FFFFFF" style="font-size:4px; font-family:Arial" x="65" y="280">SPECIAL TRACKS</text><rect fill="#FFFF00" height="2.6" width="2.6" x="65" y="283" /><text fill="#FFFFFF" style="font-size:3px; font-family:Arial" x="70" y="285.5">Over 10.0 km</text><rect fill="#FFFF00" height="2.6" width="2.6" x="65" y="287" /><text fill="#FFFFFF" style="font-size:3px; font-family:Arial" x="70" y="289.5">Over 20.0 km</text><text fill="#FFFFFF" style="font-size:4px; font-family:Arial" x="120" y="280">STATISTICS</text><text fill="#FFFFFF" style="font-size:3px; font-family:Arial" x="120" y="285">Number: 33</text><text fill="#FFFFFF" style="font-size:3px; font-family:Arial" x="120" y="290">Weekly: 2.1</text><text fill="#FFFFFF" style="font-size:3px; font-family:Arial" x="141" y="285">Total: 108.9 km</text><text fill="#FFFFFF" style="font-size:3px; font-family:Arial" x="141" y="290">Avg: 3.3 km</text><text fill="#FFFFFF" style="font-size:3px; font-family:Arial" x="167" y="285">Min: 1.2 km</text><text fill="#FFFFFF" style="font-size:3px; font-family:Arial" x="167" y="290">Max: 19.0 km</text><polyline fill="none" points="11.714285714318976,47.644760093069635 14.682926829438657,53.04016601823969 16.606271777069196,54.7968091541552 19.95121951214969,55.84242991596693 23.547038327669725,56.5116271438892 34.376306620193645,54.25308631308144 35.128919860580936,53.79301311582094 36.67595818801783,47.93753413588274 39.268292683176696,45.38621717802016 42.57142857159488,43.462272794160526 40.22996515687555,39.530733071034774 29.8606271778699,37.77408714185003 28.146341463550925,38.27598601160571 24.843205574899912,43.378623029682785 26.682926829205826,45.17709280713461 28.271777003537863,45.38621717802016 28.940766550367698,46.47366383310873 30.111498257843778,46.43183896399569 29.8606271778699,47.68658495694399 26.89198606275022,47.01738711440703 24.759581881575286,45.59534154436551 24.759581881575286,44.50789478974184 25.595818815287203,44.17329576355405 26.72473867610097,45.2607425560127 28.439024390187114,45.4280420516734 28.81533101038076,46.26453948597191 29.944250871194527,46.26453948597191 30.236933798063546,47.31016117631225 26.808362369425595,47.01738711440703 24.67595818825066,45.4280420516734 25.55400696862489,44.047821125772316 26.515679442556575,45.13526793249184 30.027874564519152,46.34818922536215 30.27874564472586,47.519285500689875 27.05923344939947,47.059211980958935 24.717770034912974,45.59534154436551 25.38675958197564,44.21512064244598 26.557491289218888,45.093443057499826 28.271777003537863,45.38621717802016 29.024390243925154,46.39001409482444 30.236933798063546,46.39001409482444 30.195121951168403,47.519285500689875 26.933797909412533,47.059211980958935 24.759581881575286,45.55351667146897 23.92334494763054,45.67899128951831 22.627177700400352,47.1846865794505 20.327526132343337,45.4698669250356 20.82926829275675,45.30256743024802" stroke="#4DD2FF" stroke-linecap="round" stroke-linejoin="round" stroke-width="0.5"><title>2025-10-27 3.5km</title><desc>1761575165000</desc></polyline><polyline fill="none" points="48.14285714295693,47.52445621648803 49.92307692300528,51.97639024828095 52.84772370499559,55.071543185797054 59.50235478812829,56.64031895674998 67.21664050244726,55.24114057852421 71.41287284134887,53.926760706992354 72.98116169543937,48.075648159428965 79.0,42.98772134660976 76.4568288854789,39.341372160532046 65.0549450549297,37.64539532898925 63.65620094188489,38.662981463363394 60.90109890094027,43.36931594979251 62.893249607644975,45.10769117518794 64.08006279426627,45.10769117518794 65.13971742545255,46.25247469061287 66.15698587126099,46.29487407754641 66.36891679745167,47.39725807134528 62.93563579278998,47.01566362613812 60.68916797498241,45.27728874149034 61.11302982736379,44.21730390342418 61.70643642079085,44.17490450758487 62.76609105197713,45.065291783132125 64.50392464688048,45.319688132731244 65.35164835164323,46.3372734641307 66.24175824178383,46.25247469061287 66.49607535311952,47.22766054200474 65.77551020402461,47.56685559777543 62.85086342226714,46.93086485832464 60.68916797498241,45.27728874149034 61.49450549436733,44.09010571503313 66.45368916797452,46.67646855098428 65.86028257454745,47.65165435994277 62.978021977934986,46.93086485832464 60.731554160127416,45.319688132731244 61.28257456817664,44.047706318611745 62.893249607644975,45.065291783132125 64.50392464688048,45.23488935024943 65.13971742545255,46.25247469061287 66.41130298259668,46.84606608998729 65.90266875992529,47.60925497894641 62.80847723712213,46.88846547430148 60.68916797498241,45.319688132731244 61.19780219788663,44.047706318611745 64.41915227635764,45.022892390959896 65.22448979597539,46.21007530356292 66.36891679745167,46.37967285065679 66.02982731559314,47.52445621648803 62.93563579278998,47.01566362613812 61.24018838303164,45.57408447546186 61.32496075355448,44.89569421316264" stroke="#4DD2FF" stroke-linecap="round" stroke-linejoin="round" stroke-width="0.5"><title>2025-10-26 3.7km</title><desc>1761488053000</desc></polyline><polyline fill="none" points="84.57142857136205,47.60989663132932 85.8872077029664,50.83668138476787 88.81587738264352,54.572957134165335 91.82943603862077,56.058975500578526 96.32855177833699,56.78075576823903 99.7241108273156,55.54948351474013 107.53389663994312,54.233295761514455 109.78345450991765,47.77972743444843 111.8632344272919,45.52946905302815 115.42857142863795,43.151836990960874 114.32501473790035,40.34962703008205 112.96679111826234,39.203268177225254 102.14344664965756,37.5049585175002 100.1910001966171,38.906064008246176 97.64433090994135,43.32166787178721 99.42699941061437,45.10489194164984 101.16722342325374,45.48701134265866 101.7614462566562,46.46353863290278 102.82255845982581,46.33616551361047 103.07722538826056,47.185319610580336 99.6392218512483,47.01548879715847 98.91766555327922,46.33616551361047" stroke="#4DD2FF" stroke-linecap="round" stroke-linejoin="round" stroke-width="0.5"><title>2025-10-24 2.0km</title><desc>1761259505000</desc></polyline><polyline fill="none" points="124.41997605469078,55.73877711244859 130.58952964097261,61.91020427667536 135.87771843001246,61.689796176273376 148.21682560257614,43.17551237437874 144.69136641081423,33.03673507459462 135.4370360309258,33.03673507459462 125.52168205194175,51.33061439730227 127.28441164735705,60.14693944854662 138.0811304245144,61.46938807494007 147.99648440349847,43.39592055371031 146.45409600716084,34.138776182895526 141.60658961720765,31.714285714318976 135.4370360309258,33.47755152103491 125.30134085193276,51.11020625126548 127.72509404737502,60.3673475550022 138.3014716245234,60.80816376605071 148.21682560257614,42.73469601199031 144.69136641081423,32.81632685055956 134.77601243183017,34.138776182895526 125.30134085193276,51.77143068588339 127.0640704492107,59.926531340461224 132.79294163640589,62.57142857136205 137.86078922543675,61.028571869945154 148.43716680258512,41.63265508855693 144.9117076098919,32.81632685055956 135.21669483091682,33.03673507459462 124.86065845284611,53.31428766599856 127.72509404737502,60.587755660992116 138.0811304245144,61.028571869945154 148.21682560257614,42.73469601199031 144.69136641081423,32.81632685055956 135.21669483091682,33.25714329862967 125.0809996528551,53.534695802489296 129.26748244371265,61.46938807494007 138.52181282360107,60.14693944854662 148.43716680258512,41.19183871312998 143.36931921355426,32.375510398996994 134.5556712327525,34.35918440180831" stroke="#4DD2FF" stroke-linecap="round" stroke-linejoin="round" stroke-width="0.5"><title>2025-10-22 2.4km</title><desc>1761131601000</desc></polyline><polyline fill="none" points="165.98335644928738,57.165449380816426 184.4909847433446,49.506997438380495 186.62135922315065,48.175091963552404 188.2857142855646,45.677768567577004 187.85298196936492,44.6455413235235 180.19694868219085,39.95057047047885 176.6685159499757,36.2878252294031 176.10263522877358,36.187932152533904 157.42857142852154,47.842115558334626 163.58668515936006,58.09778213320533 165.5173370318953,57.39853257959476 165.35090152570046,56.732580563926604 166.04993065190502,56.099926094990224" stroke="#4DD2FF" stroke-linecap="round" stroke-linejoin="round" stroke-width="0.5"><title>2025-10-21 2.7km</title><desc>1761043658000</desc></polyline><polyline fill="none" points="11.714285714318976,83.12431542761624 14.375124180456623,87.93248599686194 19.610967613756657,90.63708091224544 23.04430756997317,91.06638162431773 34.46016292460263,88.61936731543392 36.77766739530489,82.00813263875898 38.40850387443788,80.20506786659826 42.57142857136205,77.45753996039275 40.296840850496665,73.59382754546823 28.194317504530773,71.79076123284176 27.16431551752612,72.60643412952777 24.374726803041995,77.58633034810191 26.30598052847199,79.4323257204378 27.850983508862555,79.51818596199155 28.53765150019899,80.5055786849698 29.782237234292552,80.5914389169775 29.99682098161429,81.36418097221758 29.310152990277857,81.7934820879018 26.30598052847199,81.0636701802141 24.76097754831426,79.81869680114323 24.63222729996778,78.91716425592313 23.90264255926013,79.56111608230276" stroke="#4DD2FF" stroke-linecap="round" stroke-linejoin="round" stroke-width="0.5"><title>2025-10-20 2.1km</title><desc>1760972163000</desc></polyline><polyline fill="none" points="48.14285714295693,83.2069071730948 51.31746031763032,87.73741593211889 54.32275132299401,89.76979300775565 56.26984127005562,90.36256957484875 59.740740741137415,90.91300492628943 71.00000000023283,88.54189857526217 72.82010582042858,82.61413017002633 75.06349206366576,80.03131566318916 79.00000000023283,77.702547896537 76.96825396851636,73.93417705519823 65.24338624370284,71.94413793092826 61.13756613782607,77.61786542175105 63.04232804267667,79.48087969608605 64.77777777798474,79.65024461230496 65.41269841277972,80.66643404815113 66.51322751352564,80.58175159926759 66.68253968260251,81.38623483426636 65.75132275139913,81.80964703654172 63.08465608488768,81.21686994825723 60.88359788386151,79.56556215451565 61.17989418003708,78.50703137001256 61.77248677262105,78.38000766810728 63.126984127098694,79.4385384664638 64.65079365111887,79.60790338349761 65.28571428591385,80.66643404815113 66.34391534421593,80.58175159926759 66.59788359818049,81.51325849688146 65.79365079384297,81.89432947483147 63.00000000023283,81.25921117007965 61.34920634957962,79.86195075354772" stroke="#4DD2FF" stroke-linecap="round" stroke-linejoin="round" stroke-width="0.5"><title>2025-10-18 2.4km</title><desc>1760744942000</desc></polyline><polyline fill="none" points="84.57142857136205,81.49243817664683 86.10364532005042,85.45189624722116 87.84866995038465,87.87866007891716 88.91270935954526,88.81530560739338 92.53044334962033,90.04997457616264 95.85024630534463,90.8163207541802 101.55349753703922,89.36877792305313 101.97911330033094,89.96482499706326 107.3418719212059,88.43213244754588 109.55507389176637,82.04591090651229 111.5980295566842,79.6617204619688 115.42857142840512,77.32010428060312 113.13024630537257,73.53094236162724 107.08650246285833,72.25369643955491 100.7022660097573,72.04082210292108 97.59527093567885,77.49040365818655 99.34029556647874,79.23597210709704 100.91507389163598,79.23597210709704 101.76630541868508,80.3429177912185 102.83034482738003,80.2577681276016 103.04315270925872,81.2795640413533 99.5531034481246,81.15183955803514 97.25477832485922,79.32112177961972 97.59527093567885,78.17160113877617 98.65931034460664,78.25675082049565 99.38285714271478,79.19339727057377 101.17044334975071,79.40627145126928 101.72374384221621,80.4280674540787 102.8729064038489,80.3854926226777 102.53241379302926,81.620162655483 99.5531034481246,81.06668990151957 96.36098522157408,78.93794824765064 95.63743842346594,78.85279857192654 95.08413793076761,80.21519329556031 92.6155665020924,78.63992437918205" stroke="#4DD2FF" stroke-linecap="round" stroke-linejoin="round" stroke-width="0.5"><title>2025-10-17 2.7km</title><desc>1760654563000</desc></polyline><polyline fill="none" points="121.0,81.72537182067754 122.78021978028119,85.88051033183001 124.68759811623022,88.38207245821832 127.56985871284269,90.03564707061742 132.48665620107204,91.0108319669962 143.8885400313884,88.59406921913614 144.99058084795251,84.60852934326977 146.47409733128734,81.85256996471435 148.4238618526142,79.60540250933263 151.8571428572759,77.65503033500863 149.01726844580844,73.49988831166411 137.95447409758344,71.84631089010509 133.97017268440686,77.48543273622636 135.6656200941652,79.22380798426457 137.48822605982423,79.56300311849918 138.25117739406414,80.66538722271798 139.26844584010541,80.53818906331435 139.39560439554043,81.38617676182184 138.63265306130052,81.8949693457107 135.5384615387302,81.17417984409258" stroke="#4DD2FF" stroke-linecap="round" stroke-linejoin="round" stroke-width="0.5"><title>2025-10-14 2.0km</title><desc>1760449884000</desc></polyline><polyline fill="none" points="157.42857142863795,81.78897086641518 160.31083202525042,87.55528493248858 162.4301412871573,89.42085639975267 164.25274725281633,90.14164528006222 168.78806907404214,90.9896321297856 180.3594976454042,88.488070710795 182.4364207223989,82.50976031145547 184.21664050244726,80.30499242933001 188.28571428591385,77.421833675995 185.9120879122056,73.56348753668135 175.23076923075132,71.86751072731568 173.4929356360808,72.50350206554867 170.48351648356766,77.67623007087968 172.221350078471,79.49940404010704 173.83202511793934,79.62660221126862 174.76452119322494,80.72898629156407 175.69701726851054,80.60178813483799 175.90894819470122,81.66177272354253 172.30612244899385,81.11058075190522 170.18681318685412,79.58420282107545 170.3987441130448,78.56661740090931 171.11930926237255,78.39701982046245 172.30612244899385,79.4570046493318 173.91679748822935,79.66900160122896 174.6797488227021,80.72898629156407 175.65463108336553,80.60178813483799 175.90894819470122,81.5769739607349 172.34850863413885,81.19537951878738 170.14442700170912,79.37220586731564 170.52590266871266,78.48181861109333 171.37362637370825,78.48181861109333 172.30612244899385,79.4570046493318 174.12872841465287,79.75380038074218 174.7221350078471,80.72898629156407 175.8241758244112,80.64418752060737 175.95133438007906,81.5769739607349 172.30612244899385,81.23777890187921 170.14442700170912,79.4570046493318 170.69544740975834,78.26982163335197 172.51805337541737,79.49940404010704 173.87441130308434,79.62660221126862 174.5102040816564,80.68658690626035 175.78178963903338,80.77138567680959 175.8241758244112,81.7041721047135 174.93406593427062,81.78897086641518" stroke="#4DD2FF" stroke-linecap="round" stroke-linejoin="round" stroke-width="0.5"><title>2025-10-14 3.1km</title><desc>1760393986000</desc></polyline><polyline fill="none" points="20.00277392519638,125.72022920683958 38.77669902914204,117.96188439591788 40.9403606102569,116.79646710806992 42.571428571478464,114.63212024094537 42.10540915396996,113.13372589385835 39.5090152566554,112.06820084451465 34.149791955715045,108.30556431459263 30.987517337081954,104.70941437827423 30.48821081838105,104.67611668573227 11.714285714318976,116.39689542521955 17.90568654658273,126.75245474284748 20.00277392519638,125.65363400609931" stroke="#4DD2FF" stroke-linecap="round" stroke-linejoin="round" stroke-width="0.5"><title>2025-10-13 2.7km</title><desc>1760351064000</desc></polyline><polyline fill="none" points="50.295681063085794,130.26668617862742 66.67019027471542,126.80804687482305 70.25823014206253,116.75841116416268 72.67200241633691,114.01760025543626 79.00000000023283,109.7106106710853 75.15101177897304,103.64166869944893 57.47176079754718,101.16188524989411 51.66565992147662,110.16741265542805 54.20990637270734,112.97348168201279 56.94986408948898,113.3650261554867 57.99365750537254,114.99646135163493 59.62458471767604,114.73543173237704 60.016007248545066,116.30160938075278 54.73180308076553,115.58377797889989 51.07852612505667,112.64719461288769 51.79613409843296,111.34204626549035 53.36182422237471,111.66833336290438 54.20990637270734,112.9082242687 57.080338266678154,113.49554097780492 57.99365750537254,115.1269761598669 59.68982180627063,115.1269761598669 60.016007248545066,116.56263897300232 54.14466928434558,115.58377797889989 51.143763213651255,112.97348168201279 51.861371187027544,111.40730368555523 54.34038054966368,113.16925392008852 56.623678646981716,113.43028356682044 57.92842041677795,115.25749096670188 59.755058894632384,115.32274836965371 59.23316218657419,116.75841116416268 57.27604953199625,115.51852057711221 54.27514346130192,115.1922335634008 51.33947447920218,112.97348168201279 51.92660827562213,111.14627400343306 54.34038054966368,113.16925392008852 57.14557535503991,113.69131320912857 57.92842041677795,115.06171875598375 59.4941105407197,114.73543173237704 59.95077016018331,116.36686677928083 55.0579885232728,115.77955018286593 51.274237390607595,113.16925392008852 49.96949562081136,113.3650261554867 48.14285714295693,115.84480758348946" stroke="#4DD2FF" stroke-linecap="round" stroke-linejoin="round" stroke-width="0.5"><title>2025-10-12 2.9km</title><desc>1760259227000</desc></polyline><polyline fill="none" points="87.38646616542246,117.10419815999921 87.20601503748912,118.22334293153835 85.22105263150297,119.08977748965845 84.57142857147846,121.54467491316609 87.16992481192574,122.55551481764996 89.29924812028185,125.11871545243775 91.13984962401446,126.20175773644587 104.60150375938974,125.80464224866591 107.7413533834042,124.50499142881017 109.83458646608051,115.22692272032145 112.50526315777097,111.97779114695732 115.42857142863795,110.28102193010272 113.58796992490534,106.92358394467738 109.50977443589363,105.66003166203154 103.12180451129097,105.22681369213387 100.09022556385025,110.42542783444514 101.56992481206544,111.97779114695732 102.97744360903744,112.08609555324074 103.77142857131548,113.06083514628699 104.60150375938974,112.91642928787041 104.6736842104001,113.85506732243812 101.93082706758287,113.2413424658007 100.0180451128399,111.90558820869774 100.48721804504748,110.89474700612482 101.71428571420256,111.97779114695732 103.12180451129097,112.19439995812718 103.69924812030513,113.06083514628699 104.56541353394277,112.84422635775991 104.81804511277005,113.67456001637038 101.8947368421359,113.20524100214243 100.0180451128399,111.94168967788573 100.55939849629067,110.9308484797366 101.71428571420256,112.01389261585427 103.08571428572759,112.15829849004513 103.55488721793517,112.98863221734064 104.56541353394277,112.88032782293158 104.63759398495313,113.81896586151561 102.03909774427302,113.2413424658007 98.97142857138533,111.50847203662852 100.73984962410759,108.29544049035758 96.44511278194841,106.02104661957128 94.38796992483549,108.90916571341222 91.42857142852154,111.29186320747249" stroke="#4DD2FF" stroke-linecap="round" stroke-linejoin="round" stroke-width="0.5"><title>2025-10-04 3.9km</title><desc>1759569314000</desc></polyline><polyline fill="none" points="129.4640543042915,126.26437166583491 149.6244986114325,117.7643094730447 151.8571428571595,115.03095411858521 151.4239432272734,113.73094329953892 149.42456032079645,113.0309373816126 143.19315026223194,108.83090051665204 139.8941684665624,105.16419976274483 121.0,116.96430312976008 125.13205800682772,124.03102291264804 125.8984881209908,124.5310264218715 127.09811786492355,124.06435648101615" stroke="#4DD2FF" stroke-linecap="round" stroke-linejoin="round" stroke-width="0.5"><title>2025-09-29 2.5km</title><desc>1759142060000</desc></polyline><polyline fill="none" points="167.98930481285788,124.85881833994063 185.8105423989473,117.33191796799656 188.1207028265344,114.92198774794815 188.28571428568102,114.0636562500149 187.75767761655152,113.17231189837912 185.11749427043833,111.917827076104 179.83712757832836,108.28642246150412 176.60290297935717,104.78706726100063 157.42857142852154,116.50659948645625 163.53399541636463,126.64150416763732 165.61313980130944,125.88221210741904 166.27318563777953,123.83542443346232 166.0091673033312,123.34023378352867 166.40519480523653,123.86843714222778 166.07517188682687,123.2411956496071 166.6692131398013,124.6607421108638 166.07517188682687,124.1655515152961 166.33919022150803,123.73638630606001 166.43819709704258,124.29760234395508 165.97616501152515,124.52869128854945 165.6461420932319,123.63734817737713" stroke="#4DD2FF" stroke-linecap="round" stroke-linejoin="round" stroke-width="0.5"><title>2025-09-15 3.0km</title><desc>1757932372000</desc></polyline><polyline fill="none" points="21.72379929421004,160.1784578114748 39.986189964809455,152.42029123200336 42.571428571478464,149.66846100060502 42.04112321627326,148.17650443152525 39.78732545662206,147.3476395434118 34.08654288784601,143.46855065599084 30.80527850240469,139.821542188467 11.714285714318976,151.4588084940915 16.387601657304913,159.18382151558762" stroke="#4DD2FF" stroke-linecap="round" stroke-linejoin="round" stroke-width="0.5"><title>2025-09-08 2.4km</title><desc>1757329204000</desc></polyline><polyline fill="none" points="48.14285714295693,144.9387126197107 50.13823820534162,150.99800421274267 54.12900033011101,156.48700760304928 59.61629825155251,159.4810086771613 65.45991421979852,160.55029464245308 65.0323325637728,148.0040015882114 67.31276806350797,142.37242373940535 70.37710326630622,139.59227699809708 72.72880237572826,141.44570821139496 75.36555592226796,141.58827983459923 76.43451006314717,143.44171082181856 78.64368195342831,143.3704250184819 78.64368195342831,145.08128421241418 72.44374793791212,144.36842623667326 68.88056746963412,141.5169940231135 69.94952161004767,139.59227699809708 72.08742989134043,140.16256354772486 72.87132959417067,141.44570821139496 75.65061035985127,141.6595656456193 76.71956450026482,143.51299662492238 78.71494556264952,143.3704250184819 78.2873639066238,145.15257000818383 72.51501154759899,144.36842623667326 68.73804025095887,141.44570821139496 69.94952161004767,139.52099117799662 71.87363906321116,139.94870609394275 72.87132959417067,141.44570821139496 75.57934675039724,141.87342307704967 76.43451006314717,143.58428242744412 78.71494556264952,143.58428242744412 78.00230946904048,145.29514159914106 72.6575387660414,144.4397120354697 68.80930386018008,141.5169940231135 70.23457604763098,139.44970535766333 72.6575387660414,141.5169940231135 75.22302870359272,141.6595656456193 76.50577367213555,143.44171082181856 78.64368195342831,143.65556822984945 77.85978225013241,145.29514159914106 72.51501154759899,144.4397120354697 68.73804025095887,141.58827983459923 69.87825800082646,139.52099117799662 72.51501154759899,141.5169940231135 75.436819531722,141.87342307704967 76.43451006314717,143.58428242744412 78.71494556264952,143.72685403178912 77.7885186409112,145.29514159914106 72.72880237572826,144.15456883783918 69.02309468830936,141.44570821139496 70.09204882895574,139.44970535766333 79.00000000023283,144.2258546379162 78.07357307826169,145.36642739386298 72.94259320385754,144.36842623667326 69.09435829776339,141.44570821139496 70.09204882895574,139.44970535766333 75.65061035985127,142.01599469629582 76.71956450026482,143.51299662492238 78.50115473428741,143.299139214796 78.2873639066238,145.29514159914106 72.6575387660414,144.29714043741114 69.02309468830936,141.23185077449307 70.30583965708502,139.52099117799662 72.30122071946971,141.37442239956 75.436819531722,141.87342307704967 76.71956450026482,143.3704250184819 78.42989112529904,143.15656760660931 78.42989112529904,145.29514159914106 72.94259320385754,144.36842623667326 69.16562190721743,141.73085145640653 67.59782250085846,142.15856631449424 65.88749587605707,144.72485522856005 62.75189706380479,143.58428242744412" stroke="#4DD2FF" stroke-linecap="round" stroke-linejoin="round" stroke-width="0.5"><title>2025-08-24 4.1km</title><desc>1756028507000</desc></polyline><polyline fill="none" points="84.57142857136205,146.04272848262917 86.65734265721403,152.44631830404978 90.97302697296254,157.8425999354804 100.53946053935215,160.57671529019717 100.32367632351816,147.05003491102252 106.07792207784951,139.78303715691436 111.9040959039703,141.65374975570012 113.0549450549297,143.52446214261 114.92507492518052,143.30861072405241 115.42857142863795,144.81957059388515 114.34965034946799,145.53907524526585 109.24275724263862,144.67566965974402 105.57442557439208,141.65374975570012 106.07792207784951,139.78303715691436 107.08491508476436,139.56718568946235 109.0989010988269,141.29399734921753 112.1198801198043,141.65374975570012 113.12687312671915,143.4525116700679 115.14085914101452,144.17201638082042 114.42157842149027,145.46712478157133 109.38661338668317,144.60371919244062 105.50249750260264,141.50984879396856 106.43756243749522,139.4952351996908 115.14085914101452,144.1000659110723 114.13386613409966,145.53907524526585 109.17082917084917,144.60371919244062 105.43056943034753,141.50984879396856 106.43756243749522,139.63913617888466 108.95504495501518,141.58179927512538 111.76023976015858,141.9415516750887 112.83916083909571,143.66836308653 114.92507492518052,143.8122640294023 114.42157842149027,145.46712478157133 109.31468531442806,144.53176872467156 105.50249750260264,141.50984879396856 106.43756243749522,139.4952351996908 115.14085914101452,144.02811544120777 114.70929070934653,145.46712478157133 109.24275724263862,144.45981825632043 105.50249750260264,141.50984879396856 106.65334665332921,139.42328470980283 108.95504495501518,141.65374975570012 111.61638361634687,141.65374975570012 112.98301698290743,143.52446214261 114.7812187813688,143.4525116700679 115.14085914101452,145.1793229234172 109.31468531442806,144.53176872467156 105.57442557439208,141.65374975570012 106.65334665332921,139.4952351996908 109.24275724263862,141.50984879396856 111.76023976015858,141.86960119567811 113.0549450549297,143.66836308653 114.7812187813688,143.4525116700679 115.06893106875941,145.2512733885087 109.6743256743066,144.53176872467156 105.07092907093465,141.79765071591828" stroke="#4DD2FF" stroke-linecap="round" stroke-linejoin="round" stroke-width="0.5"><title>2025-08-18 3.4km</title><desc>1755527477000</desc></polyline><polyline fill="none" points="121.0,144.95103473984636 123.36261186585762,152.04107544990256 127.58667550538667,157.1258502396522 131.81073914468288,159.34596268332098 138.25422605196945,160.6350600939477 138.03944315528497,148.67509690800216 139.9724892275408,142.37283736024983 143.12263838225044,139.4365565185435 145.34206165047362,141.44182154047303 148.42061650613323,142.01475435879547 149.35134239285253,143.44708631758112 151.21279416629113,143.3038531274069 151.5707656610757,145.02265132800676 145.55684454739094,144.30648543289863 141.8339410009794,141.51343814376742 142.8362611865159,139.50817313068546 151.5707656610757,143.9484024735866 151.28438846487552,145.1658845032798 145.62843884620816,144.30648543289863 141.8339410009794,141.58505474682897 143.1942326813005,139.4365565185435 145.70003314549103,141.44182154047303 148.7069937021006,142.01475435879547 149.56612528976984,143.5903195065912 151.49917136202566,143.44708631758112 151.06960556842387,145.1658845032798 145.55684454739094,144.30648543289863 141.9055352997966,141.44182154047303 143.33742127893493,139.4365565185435 145.62843884620816,141.3702049368294 148.56380510423332,141.94313775759656 149.42293669190258,143.51870291214436 151.28438846487552,143.23223653167952 151.85714285704307,144.4497186143417 150.42525687767193,145.23750109050889 145.55684454739094,144.23486884159502 141.8339410009794,141.51343814376742 142.4782896914985,139.50817313068546 143.62379847513512,139.36493990616873 145.41365594929084,141.15535512380302 148.63539940328337,141.87152115616482 149.35134239285253,143.44708631758112 151.71395425894298,144.0200190661708 150.6400397743564,145.3091176772723 145.41365594929084,144.23486884159502 141.8339410009794,141.29858833260369 143.1942326813005,139.36493990616873 145.62843884620816,141.44182154047303 148.56380510423332,141.87152115616482 149.42293669190258,143.44708631758112 151.21279416629113,143.23223653167952 151.49917136202566,144.95103473984636 146.05800464004278,144.378102023853 141.97712959861383,141.87152115616482 143.1942326813005,139.4365565185435 145.70003314549103,141.58505474682897 145.34206165047362,142.65930375573225 144.55452436138876,143.23223653167952 141.3327809078619,141.72828795202076" stroke="#4DD2FF" stroke-linecap="round" stroke-linejoin="round" stroke-width="0.5"><title>2025-08-14 3.3km</title><desc>1755184434000</desc></polyline><polyline fill="none" points="157.4285714281723,153.77065522619523 167.24675324652344,142.54638021998107 173.20779220666736,147.98313881689683 179.34415584336966,148.15851811459288 183.20129870064557,152.36762102134526 187.05844155699015,151.66610390110873 188.2857142854482,156.05058570415713 174.61038960982114,154.6475515794009 165.49350649211556,148.68465600162745 166.3701298693195,143.07251818105578 169.17532467469573,143.24789749993943 173.38311688229442,147.63238022034056 180.74675324652344,148.68465600162745 182.85064935032278,152.54300029971637 187.40909090917557,151.84148318204097 188.11038960888982,156.2259649662301 173.73376623354852,154.47217230987735 164.4415584411472,147.4570009203162 168.47402597311884,142.89713886170648 172.8571428572759,147.281621620059 180.57142856996506,148.33389741112478 182.85064935032278,152.19224174227566 187.75974025949836,151.84148318204097 187.2337662326172,157.1028612658847 174.25974025949836,154.82293084729463 164.61688311584294,147.4570009203162 167.24675324652344,142.89713886170648 173.55844155699015,147.8077595187351 180.57142856996506,148.86003529606387 182.85064935032278,152.54300029971637 187.05844155699015,151.66610390110873 188.2857142854482,156.2259649662301 173.20779220666736,154.29679303988814 164.61688311584294,147.8077595187351 166.0194805180654,143.24789749993943 168.82467532437295,143.07251818105578 173.38311688229442,147.63238022034056 179.69480519369245,148.50927670672536 183.0259740250185,152.89375885413028 187.58441558293998,152.01686246250756 187.58441558293998,157.1028612658847 174.08441558293998,154.99831011495553 165.14285714179277,148.50927670672536 166.0194805180654,143.42327681765892 170.2272727265954,143.77403545146808 172.68181818071753,147.1062423188705 180.39610389526933,148.15851811459288 182.49999999906868,152.36762102134526 188.2857142854482,153.4198966792319 186.00649350509048,157.45361978001893 174.08441558293998,154.6475515794009 164.61688311584294,147.63238022034056 166.89610389526933,143.07251818105578 188.11038960888982,153.59527595317923 186.18181818071753,157.2782405235339 173.73376623354852,154.47217230987735 165.14285714179277,147.98313881689683 165.84415584430099,143.59865613514557 168.12337662279606,143.07251818105578 173.38311688229442,147.8077595187351 180.39610389526933,148.15851811459288 183.20129870064557,152.71837957715616 187.2337662326172,152.01686246250756 188.2857142854482,156.2259649662301 174.4350649341941,155.17368938145228 166.89610389526933,149.03541458956897" stroke="#4DD2FF" stroke-linecap="round" stroke-linejoin="round" stroke-width="0.5"><title>2025-08-05 3.2km</title><desc>1754402672000</desc></polyline><polyline fill="none" points="11.714285714551806,189.1035413297359 22.653061225079,177.3447774988599 28.204081633128226,181.59099819674157 34.89795918483287,182.7342113791965 37.34693877585232,186.3271668688394 41.102040817029774,186.16385071817786 41.75510204117745,191.22665107273497 29.510204082354903,188.77690905076452 20.367346939630806,182.57089521246962 20.367346939630806,178.48799081123434 22.97959183715284,177.50809368863702 27.55102040898055,181.42768202489242 34.89795918483287,182.7342113791965 37.183673470281065,186.81711531826295 41.75510204117745,186.81711531826295 40.612244898453355,190.90001881239004 27.714285714551806,187.3070637609344 20.040816327556968,181.59099819674157 21.346938775852323,178.16135843959637 23.63265306223184,177.8347260656301 27.877551021054387,181.91763053834438 34.73469387739897,183.224159875419 37.34693877585232,186.9804314665962 41.91836734768003,187.3070637609344 39.95918367430568,190.90001881239004 27.714285714551806,187.47037990693934 20.040816327556968,181.91763053834438 22.489795919507742,177.50809368863702 28.530612245202065,182.24426287668757 34.57142857182771,183.224159875419 36.857142858207226,186.65379916899838 41.26530612260103,186.00053456588648 41.91836734768003,190.57338654925115 28.530612245202065,188.28696062695235 19.877551021054387,181.10104967909865 21.346938775852323,177.6714098774828 24.938775510527194,177.99804225331172 36.693877551704645,186.65379916899838 41.26530612260103,186.3271668688394 42.57142857182771,189.26685746805742 38.48979591857642,190.57338654925115 28.204081633128226,187.96032834146172 20.040816327556968,181.59099819674157 21.020408164709806,178.32467462588102 23.63265306223184,177.8347260656301 28.367346939630806,182.08094670786522 33.91836734768003,182.24426287668757 36.857142858207226,186.9804314665962 41.42857142910361,186.3271668688394 42.40816326532513,189.59348974260502 29.510204082354903,188.61359291058034 23.63265306223184,183.38747603981756" stroke="#4DD2FF" stroke-linecap="round" stroke-linejoin="round" stroke-width="0.5"><title>2025-08-01 2.4km</title><desc>1754015056000</desc></polyline><polyline fill="none" points="55.201680671423674,179.9483956247568 58.22689075488597,174.70326445018873 68.51260504219681,174.9050002747681 78.798319327645,182.77269679610617 76.37815126031637,191.6490708552301 73.95798319298774,193.86816412140615 53.78991596587002,186.40394092188217 57.621848738752306,175.30847192183137 68.71428571362048,175.10673609841615 78.798319327645,183.37790416902862 75.36974789854139,193.4646926256828 53.38655462209135,185.79873358644545 57.8235294111073,175.10673609841615 69.52100840397179,175.10673609841615 78.798319327645,183.17616837844253 75.16806722711772,193.4646926256828 53.58823529351503,185.39526202506386 57.621848738752306,175.30847192183137 68.51260504219681,175.30847192183137 78.798319327645,183.17616837844253 74.9663865538314,193.86816412140615 53.38655462209135,186.00046936585568 57.621848738752306,175.10673609841615 69.11764705833048,175.30847192183137 79.0,183.17616837844253 74.9663865538314,193.4646926256828 53.78991596587002,186.00046936585568 57.8235294111073,175.10673609841615 68.71428571362048,174.9050002747681 78.59663865529001,182.5709610034246 74.76470588240772,193.66642837389372 54.19327730964869,186.60567669873126 53.99159663822502,178.93971659592353 50.159663864411414,179.34318821015768 48.1428571427241,182.97443258808926 54.79831932671368,181.36054623080418 62.86554621811956,186.40394092188217 52.37815126031637,180.75533883296885 48.54621848650277,183.17616837844253 53.184873948805034,185.39526202506386" stroke="#4DD2FF" stroke-linecap="round" stroke-linejoin="round" stroke-width="0.5"><title>2025-07-25 2.6km</title><desc>1753404152000</desc></polyline><polyline fill="none" points="113.71428571548313,183.79578571673483 109.55102040898055,196.28899357793853 86.77551020402461,187.47025888692588 85.30612244922668,184.77564525045455 91.18367347028106,172.77236485667527 104.16326530650258,172.77236485667527 107.10204081702977,178.65152290090919 115.18367347028106,181.34613681165501 111.0204081647098,194.5742397112772 84.57142857182771,186.00046964548528 90.20408163312823,173.0173297864385 103.42857142910361,172.28243499342352 115.42857142910361,182.3259963854216 110.04081632755697,195.7990639070049 84.81632653158158,186.00046964548528 90.20408163312823,173.0173297864385 104.16326530650258,173.0173297864385 106.3673469396308,177.91662817634642 114.93877551145852,182.57096127653494 109.7959183678031,195.55409906990826 85.30612244922668,186.49039939697832 90.20408163312823,173.2622947152704 104.653061225079,173.2622947152704 107.83673469442874,179.1414527115412 114.69387755170465,182.57096127653494 109.7959183678031,195.55409906990826 84.81632653158158,186.7353642708622 90.20408163312823,173.2622947152704 103.18367347028106,172.52739992598072 114.69387755170465,182.0810314938426 109.55102040898055,195.55409906990826 84.81632653158158,186.98032914381474 91.18367347028106,173.0173297864385 103.91836734861135,172.77236485667527 112.97959183808416,181.5911017069593" stroke="#4DD2FF" stroke-linecap="round" stroke-linejoin="round" stroke-width="0.5"><title>2025-07-23 2.3km</title><desc>1753273377000</desc></polyline><polyline fill="none" points="131.6906636664644,190.60465177334845 121.0,185.98696758644655 126.83127109054476,173.10605717543513 136.0641169855371,175.53641784377396 139.46569178719074,172.86302110319957 144.0821147346869,178.9389226124622 151.85714285634458,181.85535511700436 145.29696287866682,195.95144354132935 121.4859392568469,186.95911165559664 125.37345331721008,175.2933817813173 127.31721034739166,172.6199850300327 140.19460067525506,172.6199850300327 151.6141732269898,182.34142718696967 144.8110236208886,195.70840756222606 121.4859392568469,186.95911165559664 125.37345331721008,174.3212375221774 139.95163104496896,172.86302110319957 150.64229471236467,181.3692830428481 147.72665916755795,193.76411969447508 144.3250843640417,195.70840756222606 121.72890888527036,186.95911165559664 125.8593925749883,174.0782014541328 140.4375703027472,172.86302110319957 142.38132733292878,177.48070630710572 151.37120359856635,181.85535511700436 144.56805399153382,195.95144354132935 121.4859392568469,186.95911165559664 124.40157480165362,175.77945390483364 126.58830146118999,173.10605717543513 140.4375703027472,173.3490932462737 151.1282339701429,181.85535511700436 144.8110236208886,195.70840756222606 121.72890888527036,186.7160756397061 125.61642294563353,173.3490932462737 140.4375703027472,173.10605717543513 143.59617547784,178.45285051502287 151.1282339701429,181.61231908062473 144.56805399153382,195.70840756222606 121.72890888527036,186.7160756397061 125.37345331721008,174.80730965361 140.4375703027472,172.86302110319957 151.37120359856635,181.85535511700436 144.8110236208886,195.46537158219144 121.72890888527036,186.4730396233499 125.61642294563353,175.05034571839496 139.95163104496896,172.86302110319957 143.11023622006178,178.45285051502287 151.37120359856635,182.34142718696967 144.0821147346869,195.46537158219144 121.72890888527036,186.95911165559664 126.10236220434308,173.83516538655385 140.68053993210196,172.86302110319957 143.11023622006178,178.45285051502287 151.37120359856635,182.34142718696967 146.51181102264673,194.73626363603398 143.35320584848523,195.22233560075983 121.4859392568469,186.4730396233499 125.37345331721008,175.05034571839496 139.22272215876728,172.86302110319957 151.37120359856635,181.12624700414017 145.5399325080216,195.70840756222606 122.45781777147204,187.2021476700902 124.40157480165362,176.75159814069048 126.83127109054476,173.10605717543513 139.95163104496896,173.10605717543513 150.88526434078813,181.85535511700436 144.8110236208886,195.70840756222606 121.4859392568469,185.50089554628357 126.58830146118999,173.3490932462737 141.16647918894887,173.3490932462737 151.6141732269898,182.82749925320968 145.78290213644505,195.95144354132935 121.72890888527036,186.23000360559672 127.31721034739166,173.10605717543513 140.4375703027472,172.86302110319957 146.26884139422327,180.15410283999518" stroke="#4DD2FF" stroke-linecap="round" stroke-linejoin="round" stroke-width="0.5"><title>2025-07-22 4.8km</title><desc>1753186695000</desc></polyline><polyline fill="none" points="182.98214285634458,181.15093037765473 188.04464285634458,183.56230353796855 182.2589285708964,195.61916786525398 158.39285714179277,185.49140199553221 163.21428571362048,173.1933982493356 177.43749999906868,173.1933982493356 188.04464285634458,182.59775428520516 182.2589285708964,195.86030512629077 158.15178571362048,187.42050038976595 162.73214285634458,173.43453560210764 176.23214285634458,172.4699861840345 188.2857142854482,183.32116622570902 183.2232142854482,195.61916786525398 158.15178571362048,186.45595120079815 162.97321428637952,173.1933982493356 175.9910714281723,172.9522608956322 188.2857142854482,182.838891599793 182.98214285634458,196.10144238732755 157.9107142854482,186.69708850001916 162.49107142724097,173.67567295348272 175.74999999906868,172.71112354006618 187.8035714281723,182.838891599793 182.7410714281723,195.86030512629077 157.9107142854482,186.93822579737753 162.97321428637952,173.43453560210764 176.7142857145518,173.1933982493356 188.2857142854482,182.838891599793 183.4642857145518,195.37803060235456 157.6696428572759,186.21481390064582 163.21428571362048,173.1933982493356 176.4732142854482,173.1933982493356 187.5625,182.59775428520516 183.4642857145518,195.37803060235456 157.9107142854482,186.45595120079815 162.49107142724097,173.43453560210764 175.9910714281723,172.71112354006618 188.04464285634458,182.35661697015166 183.2232142854482,195.37803060235456 158.15178571362048,186.45595120079815 163.21428571362048,173.1933982493356 176.7142857145518,173.1933982493356 179.6071428572759,178.49841978680342 187.8035714281723,182.35661697015166 182.49999999906868,195.61916786525398 158.15178571362048,186.69708850001916 162.49107142724097,173.43453560210764 176.23214285634458,172.71112354006618 187.5625,182.59775428520516 182.7410714281723,195.37803060235456 158.39285714179277,186.45595120079815 162.73214285634458,173.43453560210764 176.4732142854482,172.9522608956322 188.04464285634458,182.838891599793 182.2589285708964,195.86030512629077 158.15178571362048,186.69708850001916 162.97321428637952,173.43453560210764 176.4732142854482,173.1933982493356 187.5625,182.35661697015166 182.98214285634458,195.37803060235456 158.39285714179277,186.93822579737753 162.97321428637952,173.43453560210764 176.23214285634458,172.9522608956322 188.2857142854482,183.08002891391516 182.2589285708964,195.86030512629077 157.4285714281723,186.21481390064582 163.93749999906868,172.9522608956322 177.1964285708964,173.1933982493356 179.8482142854482,178.49841978680342" stroke="#4DD2FF" stroke-linecap="round" stroke-linejoin="round" stroke-width="0.5"><title>2025-07-21 5.0km</title><desc>1753098494000</desc></polyline><polyline fill="none" points="11.714285714318976,213.21112296404317 13.224775224924088,219.3988619685406 16.893106893170625,224.6512432594318 22.503496503457427,228.46461493207607 27.898101898143068,229.0402181270765 27.53846153873019,216.08914139389526 28.32967032981105,213.49892482941505 29.696303696371615,213.13917249662336 33.86813186830841,208.102639015764 36.24175824178383,210.04530211200472 39.11888111871667,210.4770049910294 40.12587412586436,212.27576686628163 42.06793206813745,211.84406403405592 42.57142857159488,213.49892482941505 41.42057942063548,214.14647900871933 36.3136863138061,212.9952715615509 32.57342657330446,210.33310403255746 33.580419580452144,208.2465399937937 36.24175824178383,210.04530211200472 39.11888111871667,210.4770049910294 40.19780219788663,212.27576686628163 42.139860139694065,212.13186592340935 42.06793206813745,214.0025780821452 36.67332667321898,213.13917249662336 32.501498501515016,210.18920307280496 33.580419580452144,208.102639015764 36.45754245738499,210.18920307280496 39.40659340680577,210.5489554698579 40.269730269676074,212.2038163949037 42.06793206813745,212.13186592340935 41.85214785230346,214.07452854549047 36.745254745474085,213.13917249662336 32.501498501515016,210.33310403255746 34.0119880118873,208.17458950495347 32.78921078913845,208.89409437892027" stroke="#4DD2FF" stroke-linecap="round" stroke-linejoin="round" stroke-width="0.5"><title>2025-07-16 2.0km</title><desc>1752674809000</desc></polyline><polyline fill="none" points="53.28571428544819,210.40739604528062 56.639751551672816,206.60496884491295 55.074534161016345,209.2890351335518 59.32298136502504,218.235921748681 79.0,226.9591346962843 77.21118012350053,230.31421620515175 61.11180124152452,227.40647891070694 48.1428571427241,217.78857745463029 51.49689440894872,211.97310128156096 59.32298136502504,218.45959389396012 67.81987577583641,219.35428246553056 71.84472049586475,225.16975780273788 78.10559006221592,224.94608568632975 76.31677018571645,230.31421620515175 59.99378881882876,226.9591346962843 48.1428571427241,218.6832660380751 51.27329192496836,212.19677345454693 59.99378881882876,218.45959389396012 68.49068322964013,219.35428246553056 71.62111801188439,224.72241356875747 78.32919254619628,225.61710203206167 76.09316770173609,230.31421620515175 60.66459627263248,226.9591346962843 48.59006211068481,218.6832660380751 50.826086956076324,212.19677345454693 59.546583850868046,218.45959389396012 67.59627329092473,219.13061032420956 71.39751552697271,224.49874145095237 77.88198757730424,224.49874145095237 79.0,228.74851152859628 75.64596273191273,230.53788829804398 59.99378881882876,227.18280680431053 48.1428571427241,218.45959389396012 51.27329192496836,211.97310128156096 68.71428571362048,220.02529888413846 71.84472049586475,224.94608568632975 78.10559006221592,225.16975780273788 76.98757764045149,230.31421620515175 59.546583850868046,227.18280680431053 48.1428571427241,218.45959389396012 52.16770186275244,212.42044562613592 78.77639751508832,226.73546258849092 75.86956521682441,230.53788829804398 59.770186334848404,226.9591346962843 48.366459626704454,218.45959389396012 50.37888198625296,212.42044562613592 54.18012422230095,212.19677345454693" stroke="#4DD2FF" stroke-linecap="round" stroke-linejoin="round" stroke-width="0.5"><title>2025-07-14 2.4km</title><desc>1752502101000</desc></polyline><polyline fill="none" points="84.57142857182771,216.92520242603496 90.12571428716183,210.34029410709627 93.62285714410245,210.13451570738107 98.56000000052154,215.48475380963646 106.37714285776019,216.71942405495793 109.25714285764843,221.2465480112005 114.60571428574622,220.62921295152046 115.42857142910361,226.39100652607158 99.17714285850525,224.33322318736464 88.68571428675205,216.71942405495793 89.71428571548313,210.54607250611298 94.24000000115484,210.54607250611298 98.35428571514785,215.48475380963646 106.1714285723865,216.51364568271674 109.46285714395344,221.2465480112005 114.60571428574622,220.62921295152046 115.42857142910361,226.80256318254396 100.20571428723633,224.53900152537972 89.09714285936207,217.33675916562788 89.30285714380443,210.75185090396553 92.59428571630269,210.34029410709627 97.94285714346915,215.27897543273866 106.1714285723865,216.51364568271674 109.46285714395344,221.65810471284203 114.60571428574622,221.2465480112005 115.42857142910361,225.7736715336796 98.76571428682655,224.33322318736464 88.06857142969966,215.89631056203507 91.9771428592503,210.13451570738107 98.14857142884284,215.48475380963646 106.5828571440652,217.13098079618067 109.25714285764843,221.4523263629526 115.2228571427986,221.86388306249864 113.98857142869383,227.21411983622238 99.17714285850525,224.53900152537972 88.27428571507335,215.89631056203507 90.9485714295879,209.92873730673455 98.76571428682655,215.6905321860686 106.37714285776019,216.71942405495793 109.05142857227474,221.65810471284203 114.81142857205123,221.04076965898275 114.40000000130385,227.21411983622238 99.79428571555763,224.53900152537972 88.27428571507335,216.71942405495793 89.71428571548313,210.34029410709627" stroke="#4DD2FF" stroke-linecap="round" stroke-linejoin="round" stroke-width="0.5"><title>2025-07-10 2.0km</title><desc>1752158751000</desc></polyline><polyline fill="none" points="121.0,217.35300478921272 126.88721804507077,210.24552775430493 135.00751879718155,216.13458023127168 142.31578947324306,216.94686327362433 145.36090225540102,222.02363196504302 150.43609022535384,221.00827827118337 151.2481203014031,226.2881172383204 135.61654135398567,224.05433928687125 124.45112781878561,216.94686327362433 125.4661654131487,211.05781089840457 128.91729323286563,210.24552775430493 134.19548872113228,215.32229717541486 142.92481203004718,216.94686327362433 145.36090225540102,221.82056122808717 151.04511278215796,221.61749048973434 151.8571428572759,225.069692914607 147.59398496244103,226.897329388652 135.4135338338092,223.85126855876297 124.85714285634458,216.94686327362433 125.06015037558973,212.07316480926238 128.1052631577477,210.4485985415522 134.39849624037743,215.9315094689373 143.93984962347895,217.556075546192 145.56390977464616,221.82056122808717 150.8421052619815,221.21134901139885 150.23308270797133,226.6942586726509 135.21052631549537,223.64819782902487 124.24812030047178,217.14993403176777 126.0751879690215,210.4485985415522 130.3383458647877,210.85474011395127 134.60150375962257,215.9315094689373 143.53383458591998,217.35300478921272 145.36090225540102,221.41441975114867 151.04511278215796,221.21134901139885 151.45112781971693,225.6789050803054 134.39849624037743,223.4451270995196 124.45112781878561,217.14993403176777 125.26315789483488,211.26088168262504 129.3233082704246,210.85474011395127 134.39849624037743,215.5253679412417 141.9097744366154,216.33765099337325 145.15789473615587,221.61749048973434 150.8421052619815,221.21134901139885 151.04511278215796,226.08504652022384 134.60150375962257,223.64819782902487 124.04511278215796,216.94686327362433 124.04511278215796,212.47930636792444 128.91729323286563,210.4485985415522 134.19548872113228,215.72843870543875 143.33082706760615,217.75914630154148 145.15789473615587,221.82056122808717 151.2481203014031,221.41441975114867 151.2481203014031,226.2881172383204 134.8045112779364,223.85126855876297 124.65413533896208,216.94686327362433 124.85714285634458,211.26088168262504 130.3383458647877,211.05781089840457 134.39849624037743,215.5253679412417 142.92481203004718,216.94686327362433 145.15789473615587,221.82056122808717 150.43609022535384,221.21134901139885 151.2481203014031,225.8819758007303 135.8195488722995,223.85126855876297 124.04511278215796,216.74379251431674 125.06015037558973,211.26088168262504 128.91729323286563,210.85474011395127 133.78947368450463,215.5253679412417 142.11278195492923,216.94686327362433 145.56390977464616,221.82056122808717 150.8421052619815,220.8052075295709 151.2481203014031,226.08504652022384 134.8045112779364,223.64819782902487 128.91729323286563,217.35300478921272 123.63909774459898,216.54072175431065" stroke="#4DD2FF" stroke-linecap="round" stroke-linejoin="round" stroke-width="0.5"><title>2025-07-08 3.2km</title><desc>1751983415000</desc></polyline><polyline fill="none" points="157.42857142852154,205.19957414944656 161.01398509985302,208.92732056888053 160.59051104425453,212.7397862682701 161.80447000369895,215.50735254996107 163.07489217084367,216.8064138648333 165.9545157495886,218.30315809947206 169.4270030061016,219.09389076268417 174.28283884446137,218.55732218033518 178.09410534566268,217.4841848820215 176.71075676369946,223.83828471085872 180.4373284537578,224.45957413688302 182.80878316564485,225.41974858695175 184.92615344398655,227.2553758158465 186.59181806293782,230.22061870183097 186.59181806293782,231.0678307057533 187.80577702261508,230.98310951029998 188.28571428568102,231.94328299342305" stroke="#4DD2FF" stroke-linecap="round" stroke-linejoin="round" stroke-width="0.5"><title>2025-06-21 2.1km</title><desc>1750507377000</desc></polyline><polyline fill="none" points="28.61388410786458,258.84185013124807 28.797475616753218,258.61687966473255 28.9994262765249,258.52046373572375 29.490533562828205,257.80882208035473 29.75674125069054,257.5608951964532 29.967871485932847,257.1935960011324 30.146873207108,256.5875520466943 30.137693631651928,256.07333265805937 30.25243832472188,255.9998727247148 30.353413654622273,254.5765854947531 30.426850258168997,254.38834413488803 33.28169822145719,253.6675171493407 33.4102122776676,253.69506468663167 34.67240390132065,253.31399035599316 35.581181870322325,253.30480784027895 35.98049340216676,253.3828592212667 37.02237521513598,253.99349629382777 37.28858290304197,253.51141442424705 37.61904761903861,253.1532963192658 39.39988525529043,251.7759178414999 40.13884107860213,251.37188647445873 40.79059093516844,250.46740659290663 41.25874928283156,250.1046961645916 41.52954675845103,249.25990176234336 41.827882960409625,248.86046069032454 41.87837062535982,248.57121016240126 41.68559954102966,248.17636010448769 41.74067699369334,247.579493450874 41.65806081469054,247.40043338738906 41.745266781406826,247.5611283175822 41.882960413073306,247.57490216758015 42.011474469312816,247.39584210330213 41.59839357428427,247.09281730821385 41.64888123921992,246.88161815585772 41.77280550774594,246.87243558303453 42.571428571420256,247.33156412390963 42.31440045897034,247.19841686813015 42.27768215717515,247.26728614050808 42.33275960985338,247.29024256360572 42.126219162353664,247.40502467144688 42.28686173263122,247.60244986701582 42.27309236947622,247.7769186130099 42.37406769936206,247.73100578799495 42.117039586926694,248.0661693636721 42.07114170968998,248.99360773150693 41.667240390132065,249.25990176234336 41.29087779689871,249.0808419905443 41.17613310382876,249.2369453830761 40.8364888123906,249.0946158202496 40.643717728045885,249.20021517518762 40.34997131382988,249.57669974410965 40.64830751577392,250.00368817458366 40.80895008605148,250.09551362046477 41.010900745823164,250.0266445368179 41.098106712554,249.9210452663101 41.125645438893116,249.4711004276469 41.286288009170676,249.09002454370057 41.552495697076665,249.20939772729616 41.25874928283156,250.09551362046477 40.77682157199888,250.49036294485995 40.161790017198655,251.35811267507233 39.427423981629545,251.76214404748316 37.637406769936206,253.13034002626955 37.2931726907409,253.51141442424705 37.06827309235814,253.97054001938523 36.962707974758814,253.99349629382777 35.95295467584219,253.3874504787891 35.572002294895356,253.3093990981506 34.89271371198993,253.30021658238547 29.98623063683044,254.48016919274232 29.44004589789256,254.70514055022795 28.76075731497258,255.1642656188269 27.627079747544485,256.2340262442158 27.090074584033573,256.59673453347204 25.850831899020704,257.0925886998011 25.83247274812311,257.15227483358467 25.676419965559035,257.17063979713566 23.955249569713487,257.9649241623192 23.532989099243423,258.0888875637611 23.16121629375266,258.13479993092915 23.037292025241186,258.0934788005543 22.973034997135983,257.31755949397484 22.88123924267711,257.13390986970626 22.940906483054277,257.12472738764336 22.867469879507553,257.1155449055077 21.742971887550084,255.55452176808467 21.60986804359709,255.33873309185583 21.60986804359709,255.19181311650027 21.462994836474536,255.1826306173607 21.27940332760045,254.96684186412313 20.46242111302854,252.53347623046284 20.283419391853386,252.47838109355507 19.11761331037269,252.8043606110732 18.00688468158478,252.98341973913193 17.401032702240627,252.97423722050007 16.19391853126581,252.65284901706764 15.849684452070505,252.6803965812578 15.395295467576943,252.87782076990698 15.28514056224958,252.59775388648995 15.129087779685506,252.58857136444567 15.298909925419139,252.54725001422776 15.202524383246782,252.20749662785238 15.211703958688304,252.1064888428955 15.298909925419139,252.14321894765453 15.083189902463346,252.00088978445274 14.697647733788472,251.42239040394634 15.257601835925016,250.84389070050383 14.693057946074987,251.42698167014169 15.115318416515947,252.0651674734836 15.303499713132624,252.55184127543907 13.215146299495245,252.98341973913193 12.320137693619472,253.43336305290723 11.815261044175713,253.8878974272302 11.851979345956352,253.9429924894066 11.714285714289872,254.29192781542952 11.925415949503076,254.4388479176996 11.824440619617235,254.7556443176727 11.833620195044205,254.976024365169 12.11818703384779,255.21476936402178 12.549627079744823,255.21017811456113 12.733218588633463,255.1459006199584 12.83878370624734,255.26527310677193 12.916810097522102,255.13212687060877 12.90763052208058,255.2882293526709 12.76075731497258,255.2698643559852" stroke="#FFFF00" stroke-linecap="round" stroke-linejoin="round" stroke-width="0.5"><title>2025-06-21 19.0km</title><desc>1750491371000</desc></polyline><polyline fill="none" points="65.06013003922999,238.0076603203779 61.172965094447136,237.42857142852154 65.30824695061892,245.20490663324017 75.06751213176176,253.9739620060427 73.16528247762471,257.53121926786844 70.2705851783976,262.1639254922047 69.11270625889301,261.83301793865394 68.86458934750408,263.40482877078466 62.90978347416967,264.97663948475383 56.87227196386084,263.0739212370245 55.63168740691617,260.0130263015162 52.81969574466348,260.0130263015162 52.075345010496676,258.6893959203735 52.240756284445524,257.8621268896386 53.894869026727974,259.0203035235172 58.6917959805578,258.85484972258564 61.917315828148276,264.81118573085405 69.36082317028195,263.23937500466127 68.36835552472621,265.63845448661596 70.84952463814989,267.2929919002345 70.68411336420104,268.285714285681" stroke="#4DD2FF" stroke-linecap="round" stroke-linejoin="round" stroke-width="0.5"><title>2025-06-11 1.2km</title><desc>1749641861000</desc></polyline><polyline fill="none" points="88.18916256166995,244.23573906579986 105.21379310265183,251.68633571406826 109.04433497507125,257.0081897673663 115.00295566488057,257.22106391750276 113.08768472913653,261.4785467241891 96.91428571380675,258.4983087980654 85.63546798098832,250.1962164756842 88.18916256166995,244.66148747643456 96.48866995051503,250.1962164756842 104.14975369349122,250.83483901200816 108.1931034475565,256.58244146453217 113.93891625571996,256.3695673113689 112.44926108326763,261.6914208547678 96.70147783216089,258.2854346539825 85.20985221676528,249.9833422950469 88.61477832496166,244.4486132718157 96.06305418722332,249.9833422950469 103.93694581184536,251.26058736490086 108.61871921177953,256.58244146453217 113.72610837314278,255.51807069103234 113.51330049242824,261.2656725924462 96.48866995051503,258.2854346539825 85.42266009841114,249.7704681130126 88.82758620660752,244.4486132718157 96.70147783216089,250.40909065515734 104.14975369349122,251.04771318892017 107.98029556591064,256.58244146453217 113.30049260985106,255.7309448479209 115.42857142817229,259.77555364603177 111.59802955575287,261.6914208547678 96.48866995051503,258.07256050850265 85.63546798098832,250.40909065515734 89.04039408825338,244.02286485931836 96.27586206793785,249.7704681130126 104.57536945771426,251.04771318892017 108.40591132920235,256.3695673113689 113.30049260985106,255.30519653344527 115.00295566488057,260.62705019232817 97.7655172413215,258.7111829421483 84.57142857182771,251.04771318892017" stroke="#4DD2FF" stroke-linecap="round" stroke-linejoin="round" stroke-width="0.5"><title>2025-06-10 1.9km</title><desc>1749564766000</desc></polyline></svg>