<?xml version="1.0" encoding="utf-8" ?>
<svg baseProfile="full" height="200mm" version="1.1" viewBox="0,0,200,200" width="200mm" xmlns="http://www.w3.org/2000/svg" xmlns:ev="http://www.w3.org/2001/xml-events" xmlns:xlink="http://www.w3.org/1999/xlink"><defs /><rect fill="#1a1a1a" height="200" width="200" x="0" y="0" /><rect fill="#1a1a1a" height="200" width="180" x="10" y="0" /><text alignment-baseline="middle" fill="#e1ed5e" style="dominant-baseline: central; font-size:9.0px; font-family:Arial;" text-anchor="middle" x="100.0" y="100.0">2025</text><line stroke="#e1ed5e" stroke-width="0.3" x1="100.0" x2="100.0" y1="15.0" y2="10.0" /><path d="M 100.0 14.0 a86.0,86.0 0 0,1 42.46469731375804,11.215312516191453" fill="none" id="id1" stroke="none" /><text fill="#e1ed5e" style="font-size:6.75px; font-family:Arial;" text-anchor="middle"><textPath startOffset="22.20632615414155" xlink:href="#id1">January</textPath></text><line stroke="#e1ed5e" stroke-width="0.3" x1="143.23703022742887" x2="145.7803849466894" y1="26.81831364943548" y2="22.513508569990506" /><path d="M 143.74570117128098 25.957352633546492 a86.0,86.0 0 0,1 28.547481713284135,27.462654790039103" fill="none" id="id2" stroke="none" /><text fill="#e1ed5e" style="font-size:6.75px; font-family:Arial;" text-anchor="middle"><textPath startOffset="19.985693538727396" xlink:href="#id2">February</textPath></text><line stroke="#e1ed5e" stroke-width="0.3" x1="172.23445277983987" x2="176.4835382374775" y1="55.19839476539836" y2="52.563006222186495" /><path d="M 173.08426987136738 54.67131705675599 a86.0,86.0 0 0,1 12.851231095245387,41.99856678651699" fill="none" id="id3" stroke="none" /><text fill="#e1ed5e" style="font-size:6.75px; font-family:Arial;" text-anchor="middle"><textPath startOffset="22.20632615414155" xlink:href="#id3">March</textPath></text><line stroke="#e1ed5e" stroke-width="0.3" x1="184.98032266829074" x2="189.97916517819016" y1="98.17113171792111" y2="98.06355123074" /><path d="M 185.9800911702706 98.14961562048488 a86.0,86.0 0 0,1 -9.607161424134198,41.387399972396054" fill="none" id="id4" stroke="none" /><text fill="#e1ed5e" style="font-size:6.75px; font-family:Arial;" text-anchor="middle"><textPath startOffset="21.466115282336823" xlink:href="#id4">April</textPath></text><line stroke="#e1ed5e" stroke-width="0.3" x1="174.80103733775053" x2="179.2010983576182" y1="140.37084112569926" y2="142.7455964860345" /><path d="M 175.68104954172406 140.8457921977663 a86.0,86.0 0 0,1 -30.038265399797805,32.042727171017184" fill="none" id="id5" stroke="none" /><text fill="#e1ed5e" style="font-size:6.75px; font-family:Arial;" text-anchor="middle"><textPath startOffset="22.206326154141568" xlink:href="#id5">May</textPath></text><line stroke="#e1ed5e" stroke-width="0.3" x1="143.8653032363475" x2="146.44561519142675" y1="172.8068346515853" y2="177.08958963109032" /><path d="M 144.38136562736335 173.6633856474863 a86.0,86.0 0 0,1 -40.68145358897372,12.25698825130547" fill="none" id="id6" stroke="none" /><text fill="#e1ed5e" style="font-size:6.75px; font-family:Arial;" text-anchor="middle"><textPath startOffset="21.466115282336833" xlink:href="#id6">June</textPath></text><path d="M 107.93186726928326 119.44442032107085 l 2.1873182697583675 5.3620584370900986 a26.791030296586943,26.791030296586943 0 0,0 -0.428502020368923,0.1705097971786408 l -2.0946951733475783 -5.398915078674809" fill="red" stroke="none" /><path d="M 107.59598834532513 119.57807347666477 l 1.3336603764877886 3.437406648979888 a24.687060410444165,24.687060410444165 0 0,0 -0.39749668031720214,0.15029923205707627 l -1.2742934754103117 -3.459854131143595" fill="red" stroke="none" /><path d="M 104.13013068566511 120.58985236759428 l 12.390392056995317 61.76955710278282 a84.0,84.0 0 0,0 -1.4201295417131825,0.2721712066061275 l -11.32529490071043 -61.973685507737414" fill="red" stroke="none" /><line stroke="#e1ed5e" stroke-width="0.3" x1="102.19456741930631" x2="102.32365962044197" y1="184.97166512339345" y2="189.96999836594603" /><path d="M 102.22038585953345 185.97133177190398 a86.0,86.0 0 0,1 -42.740103519485714,-10.115201625700543" fill="none" id="id7" stroke="none" /><text fill="#e1ed5e" style="font-size:6.75px; font-family:Arial;" text-anchor="middle"><textPath startOffset="22.20632615414155" xlink:href="#id7">July</textPath></text><path d="M 98.01472825383883 120.90594882070398 l -0.9091158106999345 9.573464513025222 a30.616533384719144,30.616533384719144 0 0,0 -0.5242241623848394,-0.05433797785446513 l 1.0737725696903673 -9.556397166714996" fill="red" stroke="none" /><path d="M 97.2962882734958 120.8252237178851 l -0.7702036092961224 5.9324602969611115 a26.982248638663616,26.982248638663616 0 0,0 -0.4600748468092139,-0.06376218155620246 l 0.8722070472921672 -5.918323549912304" fill="red" stroke="none" /><path d="M 95.86986931433489 120.58985236759428 l -1.4179807528971304 7.06902918679448 a28.209843483692204,28.209843483692204 0 0,0 -0.47528016648908933,-0.09959957995029196 l 1.5394523808156066 -7.043573626117647" fill="red" stroke="none" /><path d="M 95.16358092515715 120.4354850818985 l -1.375769379111153 5.813084885302717 a26.973666986720534,26.973666986720534 0 0,0 -0.4509055806723212,-0.11082162125098281 l 1.4756282445266846 -5.788542005737704" fill="red" stroke="none" /><path d="M 93.42475214034765 119.94407469862007 l -4.697217283290198 14.247622960108774 a36.001953546783795,36.001953546783795 0 0,0 -0.586883732021528,-0.19910282622647596 l 4.941770748248952 -14.164657146984176" fill="red" stroke="none" /><path d="M 93.08242187328487 119.8279376855182 l -4.766130584605352 13.661217625809842 a35.46875487971401,35.46875487971401 0 0,0 -0.5747296902088387,-0.20607761900594773 l 5.000579835443917 -13.577152465763936" fill="red" stroke="none" /><path d="M 92.7421414339146 119.70592522655815 l -2.3793949050537817 6.460332294506653 a27.884577944191022,27.884577944191022 0 0,0 -0.44898124687914254,-0.16976628977156202 l 2.4902463726932074 -6.418417754628457" fill="red" stroke="none" /><path d="M 92.06813273071674 119.44442032107085 l -2.944700599100066 7.218728481545153 a28.796236432318576,28.796236432318576 0 0,0 -0.4573507956779628,-0.19117266968563693 l 3.0685228542754914 -7.166970768839542" fill="red" stroke="none" /><line stroke="#e1ed5e" stroke-width="0.3" x1="58.666819895761336" x2="56.23545636021788" y1="174.27360380694188" y2="178.64263932499728" /><path d="M 58.180547188652646 175.14741091055294 a86.0,86.0 0 0,1 -31.652253787137756,-30.449443065178592" fill="none" id="id8" stroke="none" /><text fill="#e1ed5e" style="font-size:6.75px; font-family:Arial;" text-anchor="middle"><textPath startOffset="22.20632615414155" xlink:href="#id8">August</textPath></text><path d="M 89.7882731507175 118.34994917583269 l -3.5162445350221483 6.318511007958409 a28.231013551900226,28.231013551900226 0 0,0 -0.4225930438620926,-0.23995935930585716 l 3.624486345805448 -6.257048482857919" fill="red" stroke="none" /><path d="M 88.54995079064634 117.60387380957326 l -5.207879380217491 8.006852175790986 a30.55152811878096,30.55152811878096 0 0,0 -0.43837849592124767,-0.29053336304784705 l 5.344932574878701 -7.916020791651821" fill="red" stroke="none" /><path d="M 85.97065885151581 115.62618273729859 l -6.539779490152102 7.284147437372388 a30.789153164048095,30.789153164048095 0 0,0 -0.39131613576278357,-0.3574580120032732 l 6.6641951753817406 -7.170496658782539" fill="red" stroke="none" /><path d="M 84.9287848128048 114.62390073753433 l -7.392920334820246 7.173498075242504 a31.301181762909856,31.301181762909856 0 0,0 -0.3718780849496411,-0.38991268532070716 l 7.515304971148844 -7.045178273339297" fill="red" stroke="none" /><path d="M 83.50135304334701 112.99209946851258 l -9.550911447267888 7.521004108026125 a33.156702359871225,33.156702359871225 0 0,0 -0.3492398345491951,-0.4514395641582966 l 9.678958099035151 -7.355486549754576" fill="red" stroke="none" /><line stroke="#e1ed5e" stroke-width="0.3" x1="26.63291911575756" x2="22.317208475507996" y1="142.92168965132927" y2="145.44649492493687" /><path d="M 25.769776987707644 143.4266507060508 a86.0,86.0 0 0,1 -11.730757126820373,-40.83630448921669" fill="none" id="id9" stroke="none" /><text fill="#e1ed5e" style="font-size:6.75px; font-family:Arial;" text-anchor="middle"><textPath startOffset="21.46611528233685" xlink:href="#id9">September</textPath></text><path d="M 80.73074385275274 108.34839909993369 l -6.538481832798741 2.8327951754208076 a28.125761235385774,28.125761235385774 0 0,0 -0.18864218443921643,-0.4458944000138653 l 6.586274998430264 -2.719826249740784" fill="red" stroke="none" /><path d="M 79.86692584326677 105.97154293290107 l -8.505622950398168 2.5227986657161745 a29.87187324537943,29.87187324537943 0 0,0 -0.14197299523304083,-0.49422662151339747 l 8.547788582517313 -2.376014568698181" fill="red" stroke="none" /><path d="M 79.0235259727143 100.99374915477108 l -7.447667416359144 0.352829230994485 a28.45602027967614,28.45602027967614 0 0,0 -0.018967790069449555,-0.48947438021191203 l 7.452637339279794 -0.22457760376857622" fill="red" stroke="none" /><line stroke="#e1ed5e" stroke-width="0.3" x1="15.007084014347285" x2="10.007500721073583" y1="101.09737516637583" y2="101.16192664675087" /><path d="M 14.007167355692545 101.11028546245083 a86.0,86.0 0 0,1 10.666146001902534,-42.60595125391555" fill="none" id="id10" stroke="none" /><text fill="#e1ed5e" style="font-size:6.75px; font-family:Arial;" text-anchor="middle"><textPath startOffset="22.20632615414155" xlink:href="#id10">October</textPath></text><path d="M 79.01574976396665 99.18683210126434 l -11.604478009435237 -0.4496891188731989 a32.61318776973398,32.61318776973398 0 0,0 0.026566379368739755,-0.5607742800604408 l 11.595018021832999 0.6493745055566489" fill="red" stroke="none" /><path d="M 79.32604984820605 96.31383870115002 l -8.530275868149358 -1.5209465313989654 a29.664807253373027,29.664807253373027 0 0,0 0.0939587228481711,-0.5019312545224154 l 8.502831421391326 1.6675558633839533" fill="red" stroke="none" /><path d="M 79.3925641242962 95.95851677861259 l -7.779163094807542 -1.5256316852679324 a28.927353309567394,28.927353309567394 0 0,0 0.10003451260269029,-0.487803809984761 l 7.751749286289857 1.6593111514160959" fill="red" stroke="none" /><path d="M 79.46518482838121 95.60439243477599 l -15.063365944819544 -3.2244091194109745 a36.404603459904116,36.404603459904116 0 0,0 0.13644031577426177,-0.6116351823586313 l 15.005631242043245 3.4832224713195648" fill="red" stroke="none" /><path d="M 79.71946130924805 94.55025226153421 l -7.804101855730624 -2.0971033899813882 a29.08095590898067,29.08095590898067 0 0,0 0.13406767888408058,-0.482312772803337 l 7.766847406280183 2.231127466203668" fill="red" stroke="none" /><path d="M 79.81627453868168 94.20196356495316 l -7.004833904300498 -2.012229222817272 a28.288124894099823,28.288124894099823 0 0,0 0.13846916289909433,-0.46684918058755553 l 6.969158844289697 2.1325077901513665" fill="red" stroke="none" /><path d="M 80.02781315780177 93.51064311812611 l -6.001646236377818 -1.9500530720212448 a27.310504300793045,27.310504300793045 0 0,0 0.14911887293269427,-0.445846449860355 l 5.967190069673352 2.053072624803922" fill="red" stroke="none" /><path d="M 80.14247586403 93.16781622104843 l -7.4992716689309535 -2.5802009303673112 a28.93073214813732,28.93073214813732 0 0,0 0.1660719347797407,-0.4695077231095785 l 7.453746653341404 2.7089062799035006" fill="red" stroke="none" /><path d="M 80.2630227832202 92.82701384747504 l -6.7618264164463255 -2.45744253125608 a28.194534055835557,28.194534055835557 0 0,0 0.16969808257105762,-0.45470649271189456 l 6.71852374537364 2.573472160997316" fill="red" stroke="none" /><path d="M 80.52162464483688 92.15188598940014 l -5.593770549865747 -2.253809582370817 a27.03074842769385,27.03074842769385 0 0,0 0.17760271763127172,-0.43007906806531854 l 5.554146145348276 2.3497632208894466" fill="red" stroke="none" /><path d="M 80.803312248108 91.48605970444005 l -10.0496708620561 -4.457138586376242 a31.99372406483915,31.99372406483915 0 0,0 0.22760896414289658,-0.5015061817773735 l 9.971459580949853 4.629466776995686" fill="red" stroke="none" /><path d="M 80.95270993114464 91.15688171328213 l -9.44371544225488 -4.384450093429102 a31.41187610260772,31.41187610260772 0 0,0 0.23191209551273448,-0.4884660181079272 l 9.366845152900394 4.546358527177562" fill="red" stroke="none" /><path d="M 81.26839172434947 90.50648371742162 l -5.566761252665293 -2.821334816300979 a27.240894246007358,27.240894246007358 0 0,0 0.21557998361758815,-0.41643191061856344 l 5.517371835887591 2.916739449179878" fill="red" stroke="none" /><line stroke="#e1ed5e" stroke-width="0.3" x1="26.266209847984243" x2="21.928928074336255" y1="57.711370442889674" y2="55.22380399835377" /><path d="M 25.398753493254645 57.213857153982495 a86.0,86.0 0 0,1 29.58750427330803,-30.492523968695096" fill="none" id="id11" stroke="none" /><text fill="#e1ed5e" style="font-size:6.75px; font-family:Arial;" text-anchor="middle"><textPath startOffset="21.46611528233685" xlink:href="#id11">November</textPath></text><path d="M 82.15384107792192 88.93136811851018 l -4.002800535849459 -2.4826365056928865 a25.71019067015293,25.71019067015293 0 0,0 0.23649996822514596,-0.3740861541419646 l 3.9594729713783505 2.5511703075490666" fill="red" stroke="none" /><path d="M 82.7489923806493 88.02491185347247 l -6.065797760316229 -4.2106794258972124 a28.384018126787844,28.384018126787844 0 0,0 0.282066018205647,-0.39896237929190415 l 5.992419122306704 4.3144683055209025" fill="red" stroke="none" /><path d="M 82.95767976084542 87.72973835380427 l -3.6762039115801217 -2.646821748849731 a25.529916176895654,25.529916176895654 0 0,0 0.2598427422093146,-0.3544252083563611 l 3.6300985568571735 2.709709400877593" fill="red" stroke="none" /><path d="M 84.31358615837235 86.03803664274999 l -7.341059153144771 -6.534036391900838 a30.82775564717882,30.82775564717882 0 0,0 0.3562167120629796,-0.3933433904950842 l 7.227498800465747 6.659432569665479" fill="red" stroke="none" /><path d="M 84.80347519578584 85.50635884689758 l -7.142176317078396 -6.811829804878464 a30.86973696887947,30.86973696887947 0 0,0 0.3700483792929495,-0.3813673830322539 l 7.023863674082327 6.933761383460841" fill="red" stroke="none" /><path d="M 85.05521093208273 85.24692304244772 l -4.647124292828191 -4.587510871637854 a27.53000920293298,27.53000920293298 0 0,0 0.33581917994551574,-0.3343770656638458 l 4.567469312715362 4.6668237879518095" fill="red" stroke="none" /><path d="M 85.31137513191541 84.99185889309783 l -5.6017202490532565 -5.723572403421688 a29.008654743829553,29.008654743829553 0 0,0 0.3598686019537829,-0.34619330995601577 l 5.502368403487046 5.819148800140018" fill="red" stroke="none" /><path d="M 86.93701828274178 83.55741782278169 l -7.236649464274764 -9.108885404536505 a32.63361030728494,32.63361030728494 0 0,0 0.44283412119952476,-0.3456390557146662 l 7.078782787915814 9.232102849474392" fill="red" stroke="none" /><path d="M 87.22198572758235 83.33499621200491 l -4.894477556945305 -6.383346057361834 a29.043818585937785,29.043818585937785 0 0,0 0.3993578250587188,-0.3007880342782383 l 4.783873578128197 6.466650681145926" fill="red" stroke="none" /><path d="M 88.09926311788651 82.69761687909137 l -5.539633884577321 -8.054027979106285 a30.775219192600446,30.775219192600446 0 0,0 0.43905291422442194,-0.2964504875743121 l 5.400176275946359 8.148190378979264" fill="red" stroke="none" /><path d="M 89.00827224532344 82.1063720568725 l -4.712837669271048 -7.672111763722789 a30.004006764321858,30.004006764321858 0 0,0 0.4423989837950618,-0.26654043770051267 l 4.580076619258337 7.752098810881921" fill="red" stroke="none" /><line stroke="#e1ed5e" stroke-width="0.3" x1="56.762969772571076" x2="54.21961505331055" y1="26.818313649435495" y2="22.513508569990535" /><path d="M 56.25429882871897 25.957352633546506 a86.0,86.0 0 0,1 42.265352541879196,-11.944610805530505" fill="none" id="id12" stroke="none" /><text fill="#e1ed5e" style="font-size:6.75px; font-family:Arial;" text-anchor="middle"><textPath startOffset="22.20632615414155" xlink:href="#id12">December</textPath></text><path d="M 89.63071344664047 81.73862282372117 l -4.460693359166374 -7.855738529384918 a30.033848188151808,30.033848188151808 0 0,0 0.45176043595734977,-0.2514041934996208 l 4.324808834136978 7.931358120444723" fill="red" stroke="none" /><path d="M 91.23893434514133 80.91482961587045 l -14.902070214488504 -32.46278025117287 a56.719795608506566,56.719795608506566 0 0,0 0.8908191823140565,-0.39968460034842074 l 14.341068913707671 32.714485182037826" fill="red" stroke="none" /><path d="M 91.56875222667455 80.76684994638697 l -3.1347892370229875 -7.151002248192015 a28.807927811795036,28.807927811795036 0 0,0 0.45587344363160925,-0.19518121749886563 l 3.01123203560107 7.203902993653666" fill="red" stroke="none" /><path d="M 94.63758080256005 79.69619591428918 l -2.4559799854625073 -9.29911195437012 a30.617968643580706,30.617968643580706 0 0,0 0.5107239172556061,-0.1301948982508311 l 2.295547179521902 9.340009848789814" fill="red" stroke="none" /><path d="M 95.692805502759 79.44645832069477 l -4.8472412532283204 -23.130595841839312 a44.63303221691014,44.63303221691014 0 0,0 0.7533069459527827,-0.15110628661431977 l 4.448367897808401 23.210606084530845" fill="red" stroke="none" /><path d="M 96.04723909329186 79.375362276772 l -1.439937988636961 -7.51327997328419 a28.650019435797084,28.650019435797084 0 0,0 0.48514698532697026,-0.08865751058701553 l 1.3103958822070976 7.536952965221942" fill="red" stroke="none" /><path d="M 97.47563105711357 79.15227682838746 l -1.080236966676244 -8.921232098212354 a29.986394942041457,29.986394942041457 0 0,0 0.5129576907090034,-0.05763677336617007 l 0.9265125724575225 8.938504825049122" fill="red" stroke="none" /><path d="M 98.19473922651362 79.07773832637324 l -0.5554183215920414 -6.437079691391711 a27.46099717267294,27.46099717267294 0 0,0 0.4712958471868824,-0.03658162837851936 l 0.4445322850428248 6.445686581958692" fill="red" stroke="none" /></svg>