<?xml version="1.0" encoding="utf-8" ?>
<svg baseProfile="full" height="300mm" version="1.1" viewBox="0,0,200,300" width="200mm" xmlns="http://www.w3.org/2000/svg" xmlns:ev="http://www.w3.org/2001/xml-events" xmlns:xlink="http://www.w3.org/1999/xlink"><defs /><rect fill="#222222" height="300" width="200" x="0" y="0" /><text fill="#FFFFFF" style="font-size:12px; font-family:Arial; font-weight:bold;" x="10" y="20">Over 10km Runs</text><text fill="#FFFFFF" style="font-size:4px; font-family:Arial" x="10" y="280">Runner</text><text fill="#FFFFFF" style="font-size:9px; font-family:Arial" x="10" y="290">Perry ong</text><text fill="#FFFFFF" style="font-size:4px; font-family:Arial" x="65" y="280">SPECIAL TRACKS</text><rect fill="yellow" height="2.6" width="2.6" x="65" y="283" /><text fill="#FFFFFF" style="font-size:3px; font-family:Arial" x="70" y="285.5">Over 20.0 km</text><rect fill="red" height="2.6" width="2.6" x="65" y="287" /><text fill="#FFFFFF" style="font-size:3px; font-family:Arial" x="70" y="289.5">Over 40.0 km</text><text fill="#FFFFFF" style="font-size:4px; font-family:Arial" x="120" y="280">STATISTICS</text><text fill="#FFFFFF" style="font-size:3px; font-family:Arial" x="120" y="285">Number: 4</text><text fill="#FFFFFF" style="font-size:3px; font-family:Arial" x="120" y="290">Weekly: 1.0</text><text fill="#FFFFFF" style="font-size:3px; font-family:Arial" x="141" y="285">Total: 50.1 km</text><text fill="#FFFFFF" style="font-size:3px; font-family:Arial" x="141" y="290">Avg: 12.5 km</text><text fill="#FFFFFF" style="font-size:3px; font-family:Arial" x="167" y="285">Min: 10.2 km</text><text fill="#FFFFFF" style="font-size:3px; font-family:Arial" x="167" y="290">Max: 19.0 km</text><polyline fill="none" points="89.5,91.05314345777151 87.004424778861,90.1502410035755 85.78318584070075,90.12368504720507 83.50000000011642,90.46891247230815 82.03982300881762,91.15936726768268 81.96017699118238,88.92866689513903 81.42920353985392,88.1054320402618 77.3407079646131,87.97265221513226 76.96902654867154,88.34443571857992 77.55309734505136,91.50459463786683 77.23451327439398,91.98260173547897 72.61504424794111,88.76933112487313 67.78318584070075,86.6448538149707 65.10176991159096,85.98095451295376 63.721238938043825,86.03406645965879 60.88053097354714,88.60999535079463 58.75663716823328,86.72452172663179 57.24336283199955,86.53862993122311 53.473451327416115,88.23821186259738 52.91592920362018,91.10625536297448 52.41150442475919,91.87637793907197 49.94247787608765,94.34608075709548 45.137168141664006,100.4804998288455 44.63274336280301,100.29460842677508 42.376106194686145,98.19669080674066 42.74778761062771,97.02823006702238 42.21681415941566,96.17844030636479 38.07522123900708,93.73529412603239 38.261061946861446,90.4158005619829 37.915929203503765,88.02576414551004 39.03097345121205,85.5826148991473 38.712389380671084,84.70626766269561 37.4115044248756,83.93614423595136 35.128318584058434,84.04236816227785 33.29646017693449,83.61747244631988 32.92477876110934,81.28054551081732 33.48230088502169,80.24486171308672 32.84513274335768,77.98760157998186 32.26106194697786,77.85482154763304 29.075221239007078,75.06644023917033 18.641592920408584,69.62245421897387 14.5,63.6207862632873 14.606194690219127,61.761861427366966 17.393805309780873,60.912067038036184 20.55309734516777,58.654800147080095 23.128318584058434,57.59255663049407 26.20796460181009,55.760186152212555 27.853982300846837,53.768478518672055 28.942477876204066,51.6439896961092 30.05752212391235,50.98008679502527 32.15486725664232,50.55518890230451 32.15486725664232,51.56432135158684 33.429203539853916,51.29876019610674 36.21681415929925,52.04233140384895 37.11946902668569,52.86557085486129 38.42035398236476,53.05146361954394 41.6592920353869,52.520341420487966 42.26991150446702,51.53776523657143 42.29646017693449,50.236515464348486 42.90707964601461,49.519500171154505 45.4557522124378,50.502076663746266 47.34070796472952,50.236515464348486 47.20796460181009,57.69878099003108 49.278761061956175,58.522019717114745 51.24336283188313,61.151071721396875 53.42035398224834,61.469744618749246 53.818584070773795,63.063108868780546 55.65044247789774,63.72701052343473 57.349557522218674,63.75356658818782 62.34070796449669,62.744436050299555 70.75663716811687,60.168496855476405 74.87168141605798,63.11622100370005 75.32300884963479,65.71871507717879 76.03982300881762,67.12618592430954 76.94247787620407,67.23241012671497 77.55309734505136,66.62162093890947 77.92477876110934,64.31124392300262 78.82743362837937,64.49713635718217 80.1814159292262,65.53282267818577 83.3407079646131,69.96768273695488 85.49115044251084,70.81747593343607 87.37610619468614,73.60585907404311 90.77433628332801,76.208348920336 91.22566371690482,77.24403336376417 92.31415929202922,78.27971764147514 95.5,80.00585773625062 95.26106194686145,80.77598163002403 91.91592920362018,82.15689321042737 91.25221238937229,83.11290874748374 91.33185840700753,83.77680834307102 93.137168141664,86.19340229700902 93.4557522124378,88.42410360937356 94.11946902656928,88.98177881768788" stroke="#4DD2FF" stroke-linecap="round" stroke-linejoin="round" stroke-width="0.5"><title>2026-02-08 10.4km</title><desc>1770505358000</desc></polyline><polyline fill="none" points="180.00622542586643,90.74258978359285 179.4488859763369,91.0877040598134 177.11336828302592,90.15855019749142 174.72477064211853,90.13200294232229 172.07077326334547,91.0877040598134 172.09731323714368,89.17630168423057 171.69921363028698,88.22060028533451 171.08879423327744,87.92858038542909 167.50589777191635,87.92858038542909 167.10779816505965,88.19405302227824 167.63859764079098,91.61864906430128 167.2404980340507,91.93721604614984 162.11828309297562,88.40643112393445 155.1117300131591,85.8578934451798 153.06815203139558,86.33574433624744 151.42267365660518,88.51262017220142 150.7326343380846,88.43297838614671 148.82175622542854,86.68085884678294 147.20281782420352,86.49502795870649 143.40760157257318,88.37988386160578 143.0625819134293,90.98151505365968 142.50524246378336,91.88412155027618 135.28636959358118,100.3792353773897 134.83519003924448,100.3792353773897 132.4200524246553,98.14926907161134 132.871231978992,96.9546439506521 132.15465268667322,95.94584923321963 129.07601572736166,94.45920410123654 128.20019659225363,93.6627869264048 128.0409567495808,87.63656047233962 129.1556356487563,85.69860980697558 128.73099606810138,84.66326606352231 127.64285714284051,83.9995840897318 124.59076015721075,83.9995840897318 123.26376146788243,83.54828030869248 123.05144167738035,81.29176093218848 123.5557011795463,80.2829637802206 122.91874180850573,77.94680135109229 117.63728702475782,74.15053560453816 108.9852555700345,69.77022620334174 104.5,63.425409132876666 104.60615989507642,61.88566178933252 107.52555701159872,60.90340898136492 110.68381389242131,58.646881692897296 116.25720838783309,55.80631092263502 117.63728702475782,54.346203963737935 118.96428571420256,51.82420025349711 122.75950196571648,50.0720707772125 122.73296199203469,50.49682948202826 122.17562254250515,50.6030191538448 122.22870248998515,51.532178707333514 123.31684141536243,51.34634680734598 125.99737876805011,51.956937315524556 127.13859764079098,52.806454447767464 128.4655963302357,53.04538112098817 131.7034731322201,52.62062258471269 132.23427260806784,51.903842491068644 132.31389252934605,50.44373464549426 133.08355176926125,49.62076462258119 135.12712975090835,50.41718722699443 137.3299475752283,50.23135529481806 137.3299475752283,57.77081794428523 139.4000655306736,58.62033430839074 141.49672345991712,61.16888272803044 143.40760157257318,61.43435646375292 143.8587811269099,63.13338811320136 146.14121887274086,63.770524866326014 148.50327653985005,63.55814595558331 153.09469200507738,62.70863024290884 160.8709043249255,60.21317718891078 164.74574049795046,63.13338811320136 166.099279161077,67.14203913629171 166.73623853200115,67.30132323145517 167.61205766699277,66.74382888121181 167.79783748358022,64.80587195567205 168.1959370903205,64.27492475113831 169.84141546522733,65.15098761519766 173.3446920051938,69.98260490948451 175.68020969850477,70.85866699856706 177.8034076015465,73.93815703538712 180.88204456085805,76.2212262879475 181.97018348623533,77.97334865614539 185.5,80.04403811594239 185.1549803407397,80.84045696258545 181.78440366964787,82.32710521429544 181.30668414139654,83.09697649627924 181.439384010504,83.89339496762841 183.1114023590926,86.149913438363 183.32372214936186,88.14095849575824 184.22608125815168,89.3621324954147" stroke="#4DD2FF" stroke-linecap="round" stroke-linejoin="round" stroke-width="0.5"><title>2026-01-24 10.5km</title><desc>1769208482000</desc></polyline><polyline fill="none" points="54.01297169807367,236.65636619541328 52.83490566036198,227.61161093669944 51.0200471697608,227.22943795647006 48.95047169807367,225.54150707717054 50.47877358482219,213.6622854268062 52.19811320747249,210.6048957866733 58.43867924530059,207.8022875956376 61.75,205.158917610941 63.373820754582994,202.89772090961924 63.9469339621719,200.4772842983948 63.182783018797636,198.27978200576035 60.85849056602456,195.70010463293875 53.376179245184176,201.59195914422162 49.74646226409823,203.69391700386768 50.25589622638654,205.38185246253852 51.81603773590177,206.27359180687927 57.101415094337426,202.16522043326404 75.60023584915325,189.93563737877412 76.04599056602456,189.01204831694486 75.8231132075889,188.3432423780905 73.97641509433743,188.27954657142982 72.09787735843565,189.61715840396937 70.41037735843565,192.10129407135537 70.41037735843565,194.171406538866 71.68396226409823,194.64912472461583 74.93160377349705,192.03759829467162 78.1474056604784,190.89107422711095 80.40801886795089,189.13943991798442 82.95518867927603,188.59802559943637 93.36674528301228,188.37509028118802 95.11792452831287,187.06932614929974 95.5,186.1775846683886 95.08608490566257,185.79540971759707 92.22051886783447,187.3559573184466 81.80896226409823,188.18400286056567 78.08372641494498,189.489766810555 55.31839622638654,204.29902598261833 52.898584905662574,206.62391795084113 53.726415094337426,209.10804835165618 52.48466981132515,207.388265848218 51.52948113204911,207.32457019289723 46.43514150939882,211.0189173683757 42.67806603771169,214.84065404045396 39.90801886795089,216.433043785044 38.411556603736244,218.34391106298426 36.59669811313506,219.23564897087635 31.183962264098227,225.82813687401358 30.67452830192633,227.516067693301 24.656839622650295,237.7073406224372 20.99528301891405,254.36367471457925 17.49292452831287,261.21091496094596 14.5,264.20459028240293 17.81132075469941,262.4529718767735 18.702830188791268,261.2746101919911 18.83018867915962,259.0771244324278 21.28183962253388,252.898683029518 19.88089622638654,250.5738043783931 17.46108490554616,248.72664004418766 16.7924528302392,247.1661043309723 20.58136792446021,240.0959183583618 18.225235849036835,238.56722868862562 18.416273584938608,238.05766540113837" stroke="#4DD2FF" stroke-linecap="round" stroke-linejoin="round" stroke-width="0.5"><title>2025-12-07 10.2km</title><desc>1765061712000</desc></polyline><polyline fill="none" points="148.8614457831136,240.70985659453436 149.34337349398993,240.11930911992386 149.8734939758433,239.86621730627667 151.16265060240403,237.9981579609448 151.8614457830554,237.34734989068238 152.4156626505428,236.38318950297253 152.88554216863122,234.79232412256533 152.8614457830554,233.44249822740676 153.16265060240403,233.24966590237455 153.42771084338892,229.51353692372504 153.62048192764632,229.01940335409017 161.11445783131057,227.12723251702846 161.45180722884834,227.19954480240995 164.7650602409849,226.1992246844893 167.1506024095579,226.1751205807377 168.19879518065136,226.38000545583782 170.93373493972467,227.98292777129973 171.63253012049245,226.71746286364214 172.5,225.7774028380809 177.17469879513374,222.16178433394816 179.11445783131057,221.10120199545054 180.82530120480806,218.72694230638444 182.0542168674292,217.774827432062 182.7650602409267,215.55724212616042 183.54819277109345,214.50870931211102 183.6807228915277,213.74942667630967 183.17469879519194,212.71294527428108 183.3192771084141,211.14617030855152 183.10240963852266,210.67613764190173 183.3313253011438,211.09796183365688 183.6927710843156,211.13411818990426 184.03012048191158,210.664085521159 182.94578313245438,209.8686454340641 183.07831325294683,209.31424765913107 183.4036144578131,209.29014340546564 185.5,210.4953558252746 184.82530120480806,210.14584427884256 184.72891566256294,210.32662611884007 184.8734939758433,210.3868867294659 184.331325301202,210.6881897625426 184.75301204813877,211.20643090092926 184.71686746989144,211.66441135914647 184.98192771081813,211.5438901934831 184.3072289156844,212.42369457964378 184.18674698792165,214.85822029520932 183.12650602404028,215.55724212616042 182.1385542168282,215.0872102251742 181.83734939753776,215.496981630582 180.9457831325126,215.12336652816157 180.43975903606042,215.40056483486842 179.668674698798,216.38883682827873 180.45180722890655,217.50968145827937 180.8734939758433,217.7507232537173 181.40361445775488,217.56994190913974 181.63253012043424,217.2927438240731 181.70481927710352,216.11163862257672 182.12650602404028,215.111314427224 182.82530120480806,215.42466903415334 182.0542168674292,217.7507232537173 180.7891566264443,218.78720273026556 179.17469879513374,221.0650457720767 177.2469879517448,222.12562812464603 172.54819277103525,225.71714256897394 171.64457831316395,226.71746286364214 171.0542168674292,227.9226675508835 170.7771084337146,227.98292777129973 168.1265060240985,226.39205750683323 167.1265060240985,226.1871726326499 165.34337349393172,226.16306852876733 152.46385542169446,229.26044413095224 151.03012048191158,229.85099394434656 149.2469879517448,231.05619724943244 146.27108433732064,233.8643188910646 144.8614457830554,234.81642815037048 141.60843373491662,236.11804533697432 141.56024096376495,236.27472143816703 141.1506024095579,236.32292946748203 136.63253012049245,238.40792592609068 135.52409638551762,238.73332985486195 134.54819277109345,238.8538498186972 134.2228915662272,238.7453818514623 134.0542168674292,236.70859367167577 133.81325301202014,236.22651340797893 133.9698795180302,236.20240939255746 133.7771084337146,236.17830537696136 130.82530120480806,232.08061964123044 130.47590361442417,231.51417436612246 130.47590361442417,231.1285094308114 130.09036144573474,231.10440537057002 129.60843373491662,230.53795989332139 127.46385542169446,224.1503751049604 126.99397590360604,224.00575037059025 123.93373493972467,224.86144660407444 121.01807228912367,225.3314768152195 119.42771084338892,225.3073727038136 116.25903614453273,224.463728669798 115.35542168666143,224.53604102581448 114.16265060234582,225.0542795210058 113.8734939758433,224.31910395203158 113.46385542163625,224.29499983167625 113.90963855420705,224.1865312873415 113.65662650601007,223.29467864811886 113.6807228915277,223.02953321259702 113.90963855420705,223.12594973758678 113.34337349393172,222.75233568419935 112.33132530120201,221.2337748103746 113.80120481929043,219.71521308882802 112.3192771084141,221.2458268841292 113.42771084333071,222.92106461789808 113.92168674693676,224.19858334802848 108.43975903611863,225.3314768152195 106.09036144573474,226.51257801387692 104.7650602409849,227.70573074648564 104.8614457831136,227.85035528469598 104.5,228.7663105154934 105.0542168674292,229.15197578397056 104.78915662650252,229.98356633388903 104.81325301196193,230.56206395856861 105.56024096382316,231.18876958056353 106.69277108431561,231.1767175507266 107.17469879513374,231.0079891274072 107.45180722890655,231.32134190527722 107.65662650601007,230.97183303534985 107.63253012043424,231.38160205076565 107.24698795180302,231.3333939344593" stroke="#4DD2FF" stroke-linecap="round" stroke-linejoin="round" stroke-width="0.5"><title>2025-06-21 19.0km</title><desc>1750491371000</desc></polyline></svg>